<svg width="16" height="23" viewBox="0 0 16 23" fill="none" xmlns="http://www.w3.org/2000/svg">
<path fill-rule="evenodd" clip-rule="evenodd" d="M5.389 1.30139C4.393 3.89639 5.788 6.04039 8.246 5.69139C11.45 5.23639 11.45 0.50639 8.246 0.0513899C6.893 -0.14061 5.75 0.35939 5.389 1.30139ZM2.589 10.9484C1.165 12.6404 0 14.4404 0 14.9484C0 16.4434 2.012 16.0034 2.638 14.3714C3.94 10.9804 5.033 13.1454 4.406 17.8714C3.672 23.4014 5.369 25.0214 6.5 19.8714C6.862 18.2214 7.537 16.8714 8 16.8714C8.463 16.8714 9.138 18.2214 9.5 19.8714C10.631 25.0214 12.328 23.4014 11.594 17.8714C10.967 13.1454 12.06 10.9804 13.362 14.3714C13.988 16.0034 16 16.4434 16 14.9484C16 14.4404 14.835 12.6404 13.411 10.9484C11.646 8.85039 9.924 7.87139 8 7.87139C6.076 7.87139 4.354 8.85039 2.589 10.9484Z" fill="#199402"/>
</svg>
