<svg width="24" height="25" viewBox="0 0 24 25" fill="none" xmlns="http://www.w3.org/2000/svg">
<path d="M10.9194 4.95183C10.9194 5.25216 10.9153 5.40366 10.9055 5.40366C10.8445 5.40366 10.4488 5.45017 10.2891 5.47674C9.03538 5.68007 8.11349 6.27276 7.64421 7.1804C7.37625 7.69734 7.26796 8.2515 7.2985 8.9598C7.34571 10.1319 7.83165 11.009 8.76048 11.603C9.18116 11.8714 9.65183 12.0721 10.5182 12.3512L10.9194 12.4801V14.9239V17.3678L10.8125 17.3585C10.5598 17.3359 10.1822 17.2628 9.93367 17.1857C9.21032 16.9638 8.76326 16.5412 8.56472 15.89C8.47725 15.6043 8.43699 15.3213 8.42449 14.908L8.41616 14.6262H8.35229C8.24955 14.6262 7.36098 14.601 7.17216 14.593L7 14.5864L7.00833 14.9478C7.01666 15.3146 7.0361 15.5299 7.08747 15.809C7.40541 17.5246 8.62581 18.5066 10.6987 18.7153L10.9194 18.7365V19.6189V20.5H11.447H11.9746L11.9774 19.6269L11.9816 18.7525L12.2412 18.7299C14.1641 18.5664 15.3859 17.7332 15.8288 16.2807C15.9468 15.8914 15.9885 15.5924 15.9968 15.0581C16.0037 14.6821 16.0009 14.6262 15.9732 14.4402C15.8649 13.7066 15.5594 13.114 15.036 12.613C14.589 12.1851 14.01 11.8635 13.2519 11.6229C13.0006 11.5432 12.5091 11.4249 12.2315 11.3771C12.1246 11.3585 12.0232 11.3412 12.0065 11.3372L11.9746 11.3306V9.0515V6.77243H12.0274C12.0565 6.77243 12.1551 6.78173 12.2453 6.79369C13.1339 6.90399 13.7087 7.22292 13.9919 7.76246C14.1308 8.02957 14.2238 8.45615 14.2238 8.83223V8.9093L14.3529 8.91728C14.4223 8.92126 14.7417 8.92791 15.061 8.93189L15.64 8.93987V8.79502C15.64 7.99369 15.3998 7.24153 14.9708 6.70332C14.3751 5.95382 13.4421 5.52724 12.1593 5.41562L11.9746 5.39967V4.94917V4.5H11.447H10.9194V4.95183ZM10.9194 8.90532C10.9194 10.2741 10.9153 11.0382 10.9055 11.0382C10.8806 11.0382 10.4113 10.8761 10.2252 10.803C9.26447 10.4243 8.87433 10.0056 8.74382 9.21096C8.70911 9.00366 8.70911 8.47874 8.74382 8.30066C8.85628 7.71728 9.15201 7.33189 9.68376 7.07276C9.87814 6.97841 10.1308 6.89468 10.371 6.84552C10.5376 6.81096 10.7778 6.77641 10.8681 6.77376L10.9194 6.77243V8.90532ZM12.4883 12.8269C12.8632 12.9199 13.2117 13.0475 13.4977 13.1963C13.9031 13.409 14.228 13.7213 14.396 14.0601C14.4543 14.1797 14.5195 14.3724 14.5529 14.5266C14.5737 14.6236 14.5778 14.7086 14.5778 14.9851C14.5765 15.4276 14.5431 15.6721 14.4404 15.9738C14.1891 16.706 13.6185 17.1259 12.6272 17.3093C12.4772 17.3372 12.1926 17.3731 12.0579 17.3797L11.9816 17.3837L11.9774 15.0648C11.976 13.789 11.9774 12.7392 11.9802 12.7299C11.9871 12.7126 12.1759 12.7485 12.4883 12.8269Z" fill="#FFC601"/>
</svg>
