<svg width="436" height="534" viewBox="0 0 436 534" fill="none" xmlns="http://www.w3.org/2000/svg">
<path opacity="0.47" fill-rule="evenodd" clip-rule="evenodd" d="M130.283 40.5045C137.29 39.01 143.193 38.4297 143.403 39.2133C143.848 40.8737 120.316 46.4769 117.033 45.4911C115.814 45.1255 101.845 49.05 85.9937 54.2132C59.7058 62.7772 58.4232 63.3663 71.4144 60.9227C79.2487 59.4479 82.6189 59.2192 78.9045 60.412C74.198 61.9225 72.158 63.6382 72.1722 66.0663C72.1939 69.3862 72.1418 69.4002 71.1056 66.3521C70.5067 64.5934 68.549 63.5339 66.7525 63.9993C64.9565 64.4666 56.2725 66.3964 47.4533 68.2907C38.6337 70.1831 33.6324 71.6209 36.3394 71.4861C39.0464 71.3513 42.6168 71.855 44.273 72.6082C46.0988 73.4357 47.596 73.1562 48.0726 71.8973C49.0984 69.1885 55.1059 67.0681 55.6799 69.2106C55.9238 70.1208 57.7074 70.4409 59.6432 69.9222C62.7108 69.1002 63.5969 70.5087 66.5552 80.9241L69.9493 92.8686L62.2139 95.5537L54.4803 98.2384L56.7897 109.091C58.0597 115.059 58.2541 120.17 57.221 120.447C56.188 120.724 56.0976 121.66 57.0186 122.528C59.6955 125.051 61.6963 121.446 60.3691 116.493C59.2629 112.364 59.8999 111.749 67.3287 109.758C72.8794 108.271 76.0905 108.372 77.3261 110.072C78.3257 111.45 78.3329 112.795 77.3427 113.06C76.3506 113.326 75.7565 114.355 76.0223 115.347C76.2876 116.337 77.4523 116.492 78.6074 115.688C81.5996 113.609 89.5032 123.48 91.1159 131.315C91.8656 134.954 93.3069 141.383 94.3193 145.601L96.1592 153.271L86.8787 154.003C81.7754 154.404 72.5251 155.903 66.3247 157.333L55.0507 159.931L50.8817 149.078L46.711 138.226L50.0767 149.797C51.926 156.162 52.6973 161.944 51.7883 162.647C50.8797 163.351 56.8922 162.337 65.1501 160.395C73.408 158.454 77.0939 158.041 73.3416 159.479C65.994 162.294 66.656 165.799 74.1573 163.789C76.955 163.04 78.9883 163.644 79.4491 165.364C79.9144 167.101 81.9544 167.685 84.8507 166.909C89.4148 165.686 91.0012 167.765 93.3678 178.071C93.6633 179.353 94.6328 179.628 95.5209 178.684C96.4109 177.739 96.8653 177.878 96.5302 178.996C96.1933 180.113 93.3955 181.912 90.3104 182.996C84.5505 185.021 83.1123 183.443 81.472 173.301C81.1741 171.459 79.9905 170.206 78.8421 170.514C77.6936 170.822 77.543 171.816 78.5067 172.725C79.4704 173.634 79.1845 176.557 77.8718 179.223C76.5592 181.889 76.3177 183.229 77.339 182.201C78.358 181.172 80.0453 181.132 81.086 182.112C82.129 183.094 81.8409 185.004 80.4502 186.359C79.0594 187.713 78.7255 189.929 79.7084 191.282C81.1034 193.204 79.82 194.192 73.8506 195.792C68.4954 197.227 65.9944 197.051 65.4991 195.203C65.1106 193.753 65.3733 192.112 66.0819 191.555C66.791 191 66.1434 188.181 64.6411 185.292C62.7576 181.673 62.1646 181.269 62.7322 183.998C63.5045 187.699 59.9444 195.528 57.1504 196.277C55.0117 196.85 53.9823 189.955 55.0379 182.123C55.9571 175.301 59.0652 171.191 60.1739 175.329C60.4228 176.258 62.0144 176.226 63.7108 175.261C66.3555 173.754 66.9751 174.57 68.0547 180.982C68.974 186.445 70.1687 188.551 72.4922 188.794C75.1628 189.074 75.1564 188.418 72.458 184.676C68.0382 178.552 68.2006 171.37 72.7871 170.142C79.0879 168.453 75.8996 165.571 68.3689 166.146C64.0488 166.478 60.0938 167.897 58.3824 169.73C56.8245 171.398 53.8644 173.217 51.8038 173.769C49.7414 174.322 48.2894 175.648 48.5757 176.717C48.862 177.785 48.0139 178.804 46.6884 178.98C37.5778 180.196 37.3566 180.942 41.8464 195.278C46.5959 210.442 46.2832 215.5 41.2384 205.123C38.0998 198.666 37.9623 198.607 37.4679 203.508C37.0087 208.056 51.5747 256.795 52.772 254.719C53.0282 254.275 51.7835 247.836 50.0066 240.408C47.9341 231.75 47.6057 227.59 49.0936 228.818C50.5787 230.042 50.4553 228.65 48.7525 224.961C46.7469 220.611 46.7667 219.009 48.8365 218.455C50.3461 218.05 51.8065 218.557 52.0808 219.58C52.8913 222.605 61.789 226.99 62.477 224.703C63.2227 222.215 72.0199 219.538 72.5795 221.627C72.7934 222.425 71.6164 224.734 69.9644 226.759C67.8526 229.345 67.533 232.575 68.8861 237.625C70.7878 244.723 70.7306 244.822 64.2645 245.655C60.6636 246.117 56.6384 246.172 55.3192 245.775C53.9999 245.378 53.1162 245.729 53.3531 246.553C53.9924 248.768 58.0939 252.252 59.4145 251.7C63.5551 249.976 64.8382 250.498 62.425 252.928C60.4999 254.865 60.3041 256.956 61.8024 259.517C63.9446 263.179 63.8751 263.187 58.9999 259.899C56.2511 258.046 54.1765 257.184 54.391 257.984C55.2498 261.189 62.6209 264.299 65.0943 262.504C66.8261 261.246 67.4579 261.459 66.9537 263.137C66.0853 266.031 82.9888 261.659 113.401 251.124C130.443 245.221 130.796 245.011 118.7 247.944C111.574 249.672 106.014 250.619 106.345 250.046C107.725 247.655 130.578 240.78 133.176 241.975C136.148 243.341 193.467 226.045 192.903 223.954C192.736 223.334 195.74 221.985 199.58 220.956C205.576 219.349 206.389 218.511 205.327 215.027C204.648 212.795 204.897 211.21 205.88 211.505C207.527 212 207.472 208.483 205.748 202.866C205.363 201.609 205.736 200.789 206.578 201.042C207.419 201.293 208.38 198.327 208.711 194.447C209.28 187.783 208.636 186.669 197.029 174.242C183.32 159.563 179.551 154.769 182.389 155.621C183.444 155.939 184.442 154.899 184.609 153.312C184.853 151.003 183.877 151.048 179.724 153.544C175.287 156.209 174.757 156.182 176.057 153.351C176.895 151.533 178.927 149.624 180.576 149.114C182.606 148.484 182.075 148.002 178.935 147.622C175.776 147.24 173.794 145.425 172.722 141.932L171.15 136.803L170.811 141.881C170.494 146.638 170.424 146.683 169.704 142.597C169.283 140.198 169.577 138.1 170.354 137.934C171.132 137.769 174.138 137 177.032 136.224C181.835 134.937 182.389 135.353 183.389 141.005C184.308 146.209 184.495 146.398 184.55 142.19C184.588 139.436 185.386 134.016 186.326 130.143C188.061 122.98 185.182 114.892 182.069 118.196C181.069 119.26 180.692 118.968 181.14 117.477C182.003 114.607 164.663 95.2527 162.904 97.1208C162.265 97.7986 161.191 96.289 160.515 93.7669C159.839 91.2447 159.987 89.3916 160.844 89.6488C161.699 89.9064 163.194 82.2998 164.163 72.7472L165.927 55.3787L159.822 49.1302C156.466 45.6944 153.023 43.6203 152.175 44.5199C151.319 45.4295 150.962 45.0643 151.372 43.6976C151.778 42.346 150.751 39.7881 149.09 38.0169C146.416 35.1642 144.431 35.277 131.807 39.0069L117.544 43.2196L130.283 40.5045ZM180.554 26.9864C183.498 26.6546 187.683 25.5212 189.854 24.4666C192.026 23.412 189.616 23.6825 184.501 25.0671C179.386 26.4536 177.61 27.3164 180.554 26.9864ZM189.079 27.26C183.118 29.5853 179.375 31.3343 180.762 31.1483C182.148 30.9605 183.023 31.6717 182.705 32.7283C181.979 35.1493 188.919 45.5374 190.287 44.0793C190.845 43.487 192.109 46.3864 193.094 50.5235C194.078 54.6606 194.001 58.9867 192.92 60.1342C191.837 61.2823 191.628 62.8582 192.453 63.6348C193.278 64.4114 193.417 66.4948 192.764 68.2638C191.793 70.8862 191.605 70.8267 191.748 67.9416C192.083 61.1823 190.449 64.8601 188.06 76.2395L185.656 87.6846L193.075 98.3372C197.155 104.197 202.833 111.733 205.695 115.086C208.556 118.439 210.111 120.945 209.148 120.656C208.185 120.367 207.249 121.558 207.065 123.305C206.846 125.391 207.414 125.867 208.724 124.696C209.822 123.713 209.445 124.666 207.891 126.81C206.335 128.955 206.06 130.441 207.28 130.114C208.625 129.754 210.281 132.446 211.492 136.966C212.751 141.666 212.631 144.652 211.167 145.063C209.622 145.499 209.94 146.068 212.124 146.772C213.925 147.352 214.513 148.078 213.432 148.386C212.349 148.692 209.267 147.776 206.581 146.351C202.366 144.111 201.655 144.19 201.367 146.93C201.183 148.676 201.824 150.846 202.788 151.757C203.823 152.73 203.515 153.1 202.04 152.656C200.456 152.18 199.912 153.314 200.561 155.737C201.126 157.844 202.333 159.37 203.243 159.126C204.153 158.882 205.139 159.739 205.434 161.033C206.792 166.973 208.483 169.832 209.808 168.426C210.603 167.58 212.122 167.708 213.184 168.708C214.39 169.843 214.176 170.244 212.611 169.773C209.525 168.849 209.622 169.234 214.127 175.861C216.114 178.782 218.195 180.688 218.753 180.098C219.311 179.505 220.623 182.212 221.667 186.11C222.712 190.01 222.938 193.011 222.167 192.779C220.299 192.218 219.707 198.51 221.47 200.17C222.234 200.889 222.039 202.344 221.039 203.406C219.832 204.687 219.44 204.335 219.877 202.36C220.236 200.722 219.637 201.391 218.543 203.847C217.45 206.304 217.283 209.312 218.169 210.535C219.057 211.757 218.92 212.498 217.866 212.182C216.217 211.686 214.206 217.987 215.841 218.524C216.171 218.631 245.602 212.401 281.246 204.676C341.944 191.52 346.333 190.342 350.513 186.078C352.968 183.573 355.166 180.079 355.395 178.314C356.193 172.183 320.89 11.1273 317.718 6.4193C312.333 -1.56848 305.257 -1.18861 255.214 9.7645C207.018 20.3144 206.588 20.4297 189.079 27.26ZM18.8288 76.8683L7.99172 81.0968L18.6686 78.5711C24.5407 77.1812 29.6386 75.0691 29.9971 73.8758C30.3557 72.6824 30.4279 71.917 30.1573 72.173C29.8873 72.4309 24.7894 74.543 18.8288 76.8683ZM256.484 12.5024C255.361 13.3501 252.856 14.0551 250.919 14.0676C248.981 14.0801 249.9 13.3868 252.962 12.5267C256.023 11.6665 257.608 11.6548 256.484 12.5024ZM2.27904 86.7891C0.724426 90.4356 0.822382 90.4513 3.58913 87.0027C5.23415 84.9519 6.86682 82.9444 7.21527 82.5398C7.56372 82.1352 6.97361 82.0399 5.90517 82.3262C4.83674 82.6125 3.20458 84.6219 2.27904 86.7891ZM0.662713 100.689C1.52289 103.75 2.21615 104.669 2.20365 102.732C2.19115 100.794 1.48618 98.2894 0.638507 97.1659C-0.209169 96.0424 -0.197463 97.6273 0.662713 100.689ZM246.55 33.7559C249.975 34.105 252.259 35.7573 253.093 38.4867C254.274 42.3536 254.413 42.2447 254.869 37.0989C255.225 33.0893 256.557 31.2981 259.586 30.7497C263.087 30.115 264.178 31.1792 265.987 36.9909C268.07 43.6865 267.931 44.0091 262.853 44.2506C258.745 44.4455 258.295 44.7835 260.863 45.7392C262.864 46.4839 263.317 47.2186 262 47.5913C260.798 47.9294 258.146 47.2434 256.105 46.0666C254.065 44.8874 252.637 44.8212 252.932 45.9194C253.225 47.0158 250.953 48.5863 247.882 49.4092C242.504 50.8501 242.214 50.5947 240.053 42.5293C237.674 33.6505 238.223 32.9088 246.55 33.7559ZM280.188 24.7924C279.528 26.9902 283.407 26.7469 289.999 24.1786C293.406 22.8508 293.486 23.015 291.412 27.0619C289.761 30.2814 289.915 32.0756 292.021 34.2423C295.619 37.9368 294.318 40.2823 289.817 38.2125C287.446 37.1221 286.527 37.2787 286.91 38.7083C288.137 43.2873 283.637 41.4586 282.096 36.7503L280.445 31.7063L281.042 37.0326C281.765 43.4964 279.849 44.349 275.415 39.5378C272.33 36.1909 272.222 36.196 273.861 39.621C274.946 41.8899 274.65 43.5674 273.088 43.9859C271.336 44.4552 269.881 42.1677 268.389 36.5985C266.303 28.8142 268.241 24.9892 271.794 29.8806C273.192 31.8063 274.016 31.3961 276.139 27.719C278.931 22.8831 281.269 21.1932 280.188 24.7924ZM9.021 123.387C11.0784 131.065 12.2497 134.119 11.621 130.172C10.9946 126.226 9.31131 119.943 7.88032 116.211C6.45169 112.48 6.96363 115.709 9.021 123.387ZM45.629 117.755C45.3041 118.836 47.1828 119.146 49.8018 118.445C55.505 116.917 55.6824 115.732 50.2012 115.766C48.0119 115.778 45.9539 116.675 45.629 117.755ZM194.675 82.2377C194.982 83.7854 194.618 83.8209 193.513 82.3474C192.198 80.5952 191.459 80.7932 189.472 83.4302C187.301 86.3121 187.219 86.2363 188.709 82.7428C190.455 78.65 193.906 78.3577 194.675 82.2377ZM46.505 124.316C46.914 125.842 48.4582 126.021 50.6218 124.789C52.5257 123.704 54.0239 122.594 53.9505 122.321C53.8772 122.047 52.0249 121.835 49.8338 121.848C47.3439 121.862 46.096 122.789 46.505 124.316ZM61.8663 124.716C61.5923 125.63 66.1086 125.092 71.9028 123.523L82.4368 120.673L86.2726 130.618L90.1084 140.562L87.8931 131.081C86.66 125.802 84.4222 120.875 82.8456 119.965C79.7468 118.176 62.6689 122.045 61.8663 124.716ZM49.6059 129.835C51.0921 130.013 52.6805 129.516 53.1328 128.732C53.5852 127.949 52.3693 127.804 50.4289 128.409C48.2843 129.08 47.9614 129.639 49.6059 129.835ZM18.3129 152.652C20.2841 160.261 22.1997 165.959 22.5749 165.311C23.922 162.975 20.1195 145.977 17.4572 142.437C15.5083 139.847 15.7537 142.758 18.3129 152.652ZM174.212 110.047C174.486 111.071 172.952 110.135 170.804 107.968C168.655 105.8 166.672 103.189 166.398 102.166C166.124 101.142 167.657 102.078 169.806 104.245C171.955 106.412 173.937 109.023 174.212 110.047ZM39.5862 143.115C36.3999 147.827 36.4172 147.966 40.0897 146.982C42.1837 146.421 44.0581 144.445 44.2532 142.589C44.7857 137.511 43.2596 137.682 39.5862 143.115ZM297.968 77.0503C301.419 81.8013 303.639 93.4739 301.932 97.8835C299.752 103.509 296.806 101.783 298.226 95.7124C299.306 91.0857 297.134 84.3939 292.73 78.789C291.148 76.7747 291.308 75.6787 293.257 75.1565C294.792 74.745 296.912 75.5975 297.968 77.0503ZM294.276 84.0086C297.036 88.9708 296.23 98.3001 292.965 99.1749C291.811 99.4841 291.037 98.3449 291.247 96.6427C291.457 94.9404 291.718 91.9538 291.828 90.0031C292.017 86.6269 291.967 86.6404 290.804 90.2775C289.032 95.8198 286.242 95.7794 284.744 90.1915C283.794 86.6437 284.272 85.4264 286.524 85.6629C288.399 85.8585 289.316 84.9166 288.87 83.2526C287.646 78.6847 291.624 79.2409 294.276 84.0086ZM41.4495 151.983C37.7347 154.097 38.1684 156.646 42.3173 157.083C44.0105 157.26 45.1657 156.545 44.8839 155.493C44.6016 154.44 45.3367 153.87 46.5168 154.224C47.7449 154.593 47.8577 153.763 46.779 152.276C45.7426 150.85 44.8024 149.813 44.6873 149.972C44.5721 150.13 43.1168 151.035 41.4495 151.983ZM88.3062 150.023C85.6218 152.141 85.5991 152.488 88.1949 151.908C89.9449 151.515 91.6704 150.219 92.029 149.026C92.7788 146.53 92.7137 146.548 88.3062 150.023ZM28.7282 181.947C31.0598 190.649 32.3355 194.122 31.5608 189.667C30.7874 185.21 28.8797 178.09 27.3214 173.845C25.7644 169.598 26.3965 173.245 28.7282 181.947ZM45.8106 166.397C46.7123 169.763 48.057 170.783 50.6704 170.083C52.6584 169.55 54.5764 168.138 54.9349 166.945C55.2935 165.752 54.2798 165.125 52.6846 165.553C51.0894 165.98 49.4461 165.074 49.0346 163.538C48.6231 162.003 47.4488 160.971 46.4251 161.245C45.4013 161.519 45.1248 163.838 45.8106 166.397ZM335.939 90.03C335.743 91.6727 335.184 91.3497 334.513 89.2051C333.908 87.2647 334.053 86.0488 334.836 86.5012C335.62 86.9536 336.117 88.542 335.939 90.03ZM115.541 154.56C115.207 155.673 117.259 156.244 120.099 155.832C122.94 155.42 125.958 156.144 126.809 157.44C127.874 159.07 127.429 159.534 125.369 158.939C123.002 158.259 122.981 158.516 125.268 160.185C126.853 161.343 128.586 164.461 129.121 167.115C129.978 171.37 129.286 172.144 123.265 173.671C119.509 174.624 116.66 174.655 116.936 173.741C117.209 172.826 118.51 172.402 119.823 172.796C121.383 173.264 121.475 172.501 120.093 170.597C118.928 168.994 117.308 165.189 116.491 162.14C115.436 158.203 114.44 157.183 113.054 158.62C111.728 159.993 111.65 159.413 112.812 156.808C114.626 152.744 116.566 151.147 115.541 154.56ZM140.886 154.241C144.697 158.65 145.046 158.708 145.021 154.924C145.005 152.189 144.112 151.03 142.379 151.495C137.967 152.677 138.484 148.558 142.916 147.217C145.201 146.525 149.993 145.015 153.567 143.864L160.068 141.767L161.295 150.869C162.062 156.551 163.366 160.131 164.766 160.395C165.999 160.629 164.78 160.874 162.055 160.942C155.056 161.117 153.788 160.086 151.374 152.266C149.769 147.066 149.019 146.21 148.356 148.822C147.87 150.733 148.074 155.126 148.806 158.58C150.357 165.894 145.772 168.014 142.843 161.337C140.692 156.429 136.44 153.06 133.5 153.933C132.352 154.275 133.109 155.014 135.181 155.578C139.614 156.784 142.272 164.609 139.045 166.951C134.783 170.048 131.573 167.142 129.737 158.533C128.103 150.871 128.349 150.039 132.327 149.749C134.761 149.572 138.582 151.576 140.886 154.241ZM232.012 123.296C230.841 124.567 230.68 126.358 231.655 127.278C232.631 128.195 232.181 131.109 230.653 133.755C228.512 137.462 228.515 138.389 230.671 137.812C232.207 137.4 233.687 137.901 233.962 138.925C234.236 139.949 232.366 141.348 229.807 142.033C224.081 143.567 223.053 140.577 226.863 133.473C228.455 130.509 228.773 128.345 227.57 128.667C226.368 128.99 225.61 130.091 225.884 131.114C226.158 132.138 225.484 133.217 224.385 133.511C220.467 134.561 221.987 127.321 226.205 124.832C232.379 121.186 234.46 120.637 232.012 123.296ZM33.0987 181.275C33.0982 188.168 35.4896 195.722 37.9021 196.447C39.2495 196.852 39.0203 193.174 37.2991 186.751C34.3325 175.679 33.1 174.072 33.0987 181.275ZM88.3034 163.199C87.8511 163.982 86.2627 164.48 84.7765 164.302C83.132 164.106 83.4549 163.546 85.5995 162.876C87.5399 162.27 88.7558 162.415 88.3034 163.199ZM108.76 165.55C109.745 169.224 109.476 172.554 108.115 173.543C106.832 174.476 106.376 175.797 107.1 176.479C107.826 177.162 106.817 178.282 104.858 178.969C102.899 179.655 101.573 179.298 101.909 178.177C102.247 177.057 101.215 176.489 99.6201 176.917C98.0249 177.344 96.6244 177.344 96.5097 176.916C96.395 176.488 95.349 174.825 94.1833 173.222C92.8042 171.322 92.896 170.555 94.4473 171.021C95.8079 171.431 96.9095 169.779 97.0166 167.17C97.4249 157.124 106.179 155.917 108.76 165.55ZM221.048 135.403C222.556 141.032 222.499 143.991 220.874 144.427C219.238 144.865 218 142.777 217.051 137.97C215.703 131.159 215.643 131.113 215.592 136.865C215.541 142.602 215.473 142.66 214.046 138.177C212.605 133.647 214.247 128.247 217.314 127.426C218.133 127.206 219.813 130.796 221.048 135.403ZM103.419 166.361C105.662 171.3 105.993 171.491 105.581 167.609C105.314 165.085 104.121 162.458 102.931 161.771C101.622 161.015 101.815 162.824 103.419 166.361ZM206.339 138.346C207.299 141.93 208.076 143.294 208.063 141.376C208.051 139.458 207.266 136.528 206.317 134.861C205.37 133.194 205.379 134.763 206.339 138.346ZM255.217 127.245C255.894 130.904 256.591 134.896 256.765 136.119C257.233 139.415 248.851 138.153 247.14 134.67C246.36 133.083 246.619 131.543 247.719 131.249C248.818 130.954 249.955 131.601 250.245 132.685C250.535 133.768 251.546 133.834 252.492 132.831C253.692 131.558 253.315 130.717 251.25 130.053C248.792 129.264 248.672 128.637 250.548 126.369C252.331 124.216 251.991 124.125 248.936 125.939C246.805 127.204 244.861 127.484 244.614 126.562C243.843 123.683 245.941 121.559 250.042 121.066C253.28 120.677 254.207 121.785 255.217 127.245ZM267.944 122.863C270.662 129.708 269.802 136.51 266.736 132.411C265.306 130.498 264.897 130.608 264.114 133.114C263.378 135.468 263.045 135.579 262.504 133.653C262.13 132.317 261.273 131.806 260.603 132.521C259.932 133.233 258.968 132.263 258.46 130.366C257.951 128.469 258.154 127.102 258.913 127.33C259.67 127.558 260.841 125.383 261.516 122.496C263.2 115.296 264.981 115.398 267.944 122.863ZM279.365 114.789C279.64 115.813 278.406 117.069 276.621 117.579C273.533 118.465 273.558 118.558 277.145 119.534C279.218 120.098 281.461 122.611 282.133 125.12C283.094 128.707 282.391 129.939 278.838 130.891C273.929 132.206 271.694 129.411 270.626 120.622C270.129 116.52 270.995 115.037 274.423 114.118C276.867 113.463 279.091 113.765 279.365 114.789ZM291.032 113.658C291.307 114.682 290.081 115.966 288.305 116.509C285.833 117.269 286.164 117.632 289.718 118.062C295.067 118.709 296.728 122.512 293.593 126.937C289.363 132.908 282.19 126.038 283.145 116.932C283.515 113.404 290.219 110.622 291.032 113.658ZM71.9454 177.513C71.4175 182.535 71.9583 183.034 74.3148 179.707C76.7201 176.31 76.5227 173.131 73.9484 173.82C73.0345 174.065 72.1331 175.727 71.9454 177.513ZM175.693 148.553C176.601 149.407 176.455 150.344 175.371 150.634C174.288 150.925 173.176 150.325 172.901 149.301C172.627 148.277 172.771 147.341 173.223 147.22C173.676 147.099 174.786 147.699 175.693 148.553ZM134.749 162.682C135.419 164.827 135.979 165.15 136.175 163.507C136.353 162.019 135.855 160.431 135.072 159.978C134.288 159.526 134.143 160.742 134.749 162.682ZM122.711 166.74C122.352 167.933 122.947 168.671 124.03 168.381C125.114 168.091 125.777 167.015 125.503 165.992C125.229 164.968 124.636 164.229 124.183 164.35C123.731 164.471 123.069 165.546 122.711 166.74ZM275.85 126.704C276.852 128.081 278 129.12 278.402 129.012C278.804 128.905 278.797 127.56 278.386 126.024C277.974 124.489 276.826 123.45 275.834 123.715C274.844 123.981 274.851 125.325 275.85 126.704ZM52.5738 193.03C53.8091 196.33 53.906 199.141 52.7947 199.439C51.7077 199.73 50.3806 198.344 49.848 196.356C49.3153 194.368 47.9036 192.45 46.7103 192.091C43.1152 191.012 43.2864 187.682 46.9517 187.408C49.2066 187.239 51.1255 189.159 52.5738 193.03ZM287.942 124.461C288.216 125.485 289.278 126.098 290.302 125.824C291.326 125.549 291.939 124.487 291.665 123.464C291.39 122.44 290.328 121.827 289.305 122.101C288.281 122.375 287.668 123.437 287.942 124.461ZM46.5888 201.6C46.4164 203.019 45.713 202.084 45.0272 199.525C44.3414 196.966 44.4837 195.806 45.3419 196.947C46.2025 198.089 46.7636 200.183 46.5888 201.6ZM43.8733 217.123C45.3435 221.3 45.7978 224.492 44.8803 224.217C43.9646 223.942 42.1455 219.342 40.8407 213.996C38.2938 203.56 39.5492 204.857 43.8733 217.123ZM223.12 161.802C223.643 160.062 224.737 159.809 227.08 160.887C229.535 162.015 229.973 163.128 228.89 165.487C227.939 167.553 228.118 168.421 229.422 168.072C230.502 167.782 231.466 165.81 231.562 163.688C231.66 161.567 232.821 158.337 234.147 156.511C235.855 154.158 236.33 153.979 235.781 155.894C235.261 157.705 236.269 158.257 238.84 157.568C243.08 156.432 244.865 159.828 242.334 164.213C241.359 165.901 241.475 166.837 242.618 166.531C243.673 166.248 245.096 163.623 245.78 160.696C247.448 153.556 249.791 153.329 251.614 160.13C252.887 164.881 252.399 165.905 248.347 166.991C245.728 167.693 244.202 168.85 244.958 169.561C245.713 170.274 245.15 171.173 243.704 171.561C242.258 171.948 241.295 171.534 241.563 170.642C241.83 169.749 240.903 168.948 239.501 168.859C237.548 168.735 237.389 167.717 238.819 164.498C239.846 162.188 239.867 161.143 238.866 162.178C237.866 163.212 236.341 163.12 235.477 161.973C234.615 160.825 234.264 161.587 234.7 163.665C235.554 167.741 232.352 177.591 231.368 173.917C231.038 172.688 228.251 172.376 225.113 173.216C219.659 174.678 219.397 174.453 217.865 167.007C216.521 160.47 216.749 159.661 219.338 161.744C221.406 163.411 222.632 163.429 223.12 161.802ZM223.229 165.663C221.978 167.02 221.569 168.484 222.319 168.918C223.072 169.35 224.402 168.144 225.28 166.237C227.099 162.282 226.502 162.115 223.229 165.663ZM54.0759 227.026C54.3502 228.05 55.4625 228.649 56.5458 228.359C57.6291 228.069 57.7751 227.132 56.8679 226.278C55.9608 225.423 54.8503 224.823 54.398 224.944C53.9457 225.066 53.8015 226.002 54.0759 227.026ZM85.7727 218.746C86.0765 219.88 85.0867 220.676 83.5724 220.519C82.0594 220.36 79.8398 221.293 78.6416 222.592C76.9261 224.454 77.2234 224.76 80.0475 224.027C82.019 223.515 85.7003 224.112 88.2282 225.356C90.7578 226.599 92.0341 226.828 91.0657 225.865C89.8282 224.634 94.2632 222.765 105.995 219.576C120.229 215.708 122.823 215.486 123.624 218.074C124.279 220.185 124.732 219.709 125.122 216.502C125.601 212.541 126.998 211.576 135.114 209.597C143.339 207.591 144.714 207.795 145.823 211.182C146.848 214.313 147.091 214.388 147.073 211.56C147.061 209.63 147.81 208.278 148.741 208.557C149.672 208.838 149.548 207.236 148.465 204.998C147.088 202.151 147.373 200.696 149.416 200.149C151.665 199.546 152.011 200.078 150.92 202.453C149.801 204.884 150.083 205.115 152.242 203.547C153.815 202.404 155.23 202.479 155.563 203.723C155.958 205.195 157.15 204.688 159.289 202.14C161.117 199.96 164.997 198.077 168.557 197.641C178.237 196.458 179.433 196.88 179.461 201.473C179.482 204.895 178.361 205.893 173.919 206.411C170.724 206.785 167.759 208.349 166.962 210.085C165.356 213.578 159.525 215.607 157.252 213.467C155.352 211.677 149.088 214.545 146.301 218.482C144.627 220.844 144.314 220.718 144.619 217.811C144.955 214.615 144.639 214.618 141.617 217.836C138.738 220.901 137.869 221.09 135.717 219.115C133.977 217.519 133.382 217.539 133.799 219.178C134.201 220.754 132.285 221.88 128.111 222.52C124.648 223.051 120.349 224.592 118.555 225.944C116.302 227.641 117.418 227.636 122.16 225.922C125.934 224.56 129.588 223.974 130.279 224.624C132.741 226.941 116.814 231.353 112.133 229.648C108.978 228.498 108.197 228.596 109.643 229.96C111.21 231.436 110.647 231.898 107.463 231.753C104.639 231.624 103.385 232.359 103.798 233.9C104.148 235.205 102.788 234.967 100.725 233.361C97.3757 230.755 97.1024 230.793 97.838 233.754C98.2848 235.555 97.7633 237.265 96.68 237.555C95.5967 237.846 94.9761 237.19 95.3041 236.099C96.2789 232.857 90.9501 233.415 88.6151 236.8C85.8758 240.768 79.4947 243.712 78.8493 241.304C78.5795 240.297 80.491 239.054 83.0973 238.543C85.7968 238.016 86.3287 237.596 84.3323 237.568C80.2856 237.513 77.3613 229.511 80.5941 227.34C81.7575 226.559 80.906 226.739 78.7057 227.738C73.948 229.899 73.2396 228.498 76.1837 222.756C78.5616 218.117 84.8949 215.47 85.7727 218.746ZM52.7885 237.112C53.3052 239.041 55.3317 240.744 57.2933 240.895C59.2554 241.048 62.0371 241.377 63.476 241.632C65.2683 241.948 65.6082 240.283 64.5553 236.354C63.1793 231.218 62.4313 230.772 57.4335 232.111C53.2063 233.244 52.0773 234.458 52.7885 237.112ZM60.2924 235.335C60.5667 236.359 59.9535 237.421 58.9298 237.695C57.906 237.97 56.844 237.356 56.5696 236.333C56.2953 235.309 56.9085 234.247 57.9323 233.973C58.956 233.698 60.0181 234.311 60.2924 235.335ZM124.641 239.248C124.189 240.032 122.6 240.529 121.114 240.351C119.47 240.155 119.792 239.596 121.937 238.925C123.877 238.32 125.093 238.465 124.641 239.248ZM175.397 227.643C174.945 228.427 173.356 228.924 171.87 228.746C170.226 228.55 170.549 227.991 172.693 227.32C174.634 226.715 175.85 226.86 175.397 227.643ZM186.647 224.798C184.98 225.748 182.05 226.533 180.132 226.544C178.214 226.557 179.578 225.781 183.162 224.821C186.745 223.861 188.314 223.851 186.647 224.798ZM233.1 212.182C232.648 212.965 231.059 213.463 229.573 213.284C227.929 213.089 228.251 212.529 230.396 211.859C232.336 211.253 233.552 211.398 233.1 212.182ZM250.742 294.312C250.625 295.836 249.785 306.14 248.878 317.212C247.97 328.284 247.771 339.374 248.436 341.853C250.281 348.738 263.017 373.459 264.805 373.625C265.673 373.705 266.548 376.042 266.752 378.821L267.12 383.873L282.462 378.669C291.945 375.454 295.468 374.701 291.688 376.7L285.572 379.934L291.931 378.492C298.202 377.071 298.299 377.151 299.007 384.341C299.401 388.351 300.589 394.899 301.647 398.895L303.572 406.158L286.873 409.388L270.173 412.615L269.502 425.38C269.064 433.679 269.566 438.017 270.937 437.778C272.096 437.577 280.721 435.91 290.105 434.078C314.104 429.389 319.993 428.906 319.155 431.696C318.672 433.304 310.523 435.875 293.809 439.691C269.932 445.143 269.694 445.239 286.043 442.795C299.897 440.727 302.937 440.838 303.05 443.419C303.126 445.148 301.928 446.609 300.388 446.662C293.496 446.911 271.224 452.095 273.472 452.927C274.851 453.437 276.576 456.105 277.306 458.86C279.766 468.122 289.771 487.065 291.909 486.504C293.075 486.2 319.185 480.993 349.931 474.936C425.277 460.089 429.503 458.907 433.437 451.575C436.327 446.188 436.043 443.17 429.558 410.22C425.709 390.671 420.435 363.126 417.835 349.009C415.238 334.892 410.576 311.744 407.476 297.57L401.841 271.796L394.584 267.608C389.813 264.853 385.476 263.914 381.923 264.866C378.948 265.663 357.831 270.035 334.995 274.579C251.318 291.235 250.975 291.317 250.742 294.312ZM151.997 324.432C130.497 331.256 129.873 331.571 142.328 329.299C149.651 327.963 142.061 330.096 125.462 334.041C93.281 341.691 84.3776 345.08 85.4964 349.255C85.8809 350.69 86.6712 351.681 87.2512 351.456C91.4287 349.84 95.051 350.038 94.5061 351.854C94.1272 353.113 96.1608 353.406 99.3493 352.551C102.372 351.742 104.97 349.894 105.12 348.446C105.282 346.92 108.789 344.799 113.459 343.404C118.986 341.754 120.472 341.759 118.181 343.42C115.316 345.496 115.808 345.799 121.629 345.544C125.364 345.381 130.074 346.204 132.095 347.374C135.423 349.297 135.337 349.502 131.176 349.528C127.37 349.554 127.08 349.913 129.485 351.617C131.669 353.162 138.008 352.242 155.038 347.904L177.687 342.133L147.358 351.793C130.676 357.105 109.456 363.928 100.203 366.952L83.3769 372.452L81.6261 364.05C80.6131 359.182 79.5081 356.823 79.0015 358.439C77.9443 361.812 86.2885 392.536 94.0416 413.824C97.1383 422.321 99.2951 427.355 98.8359 425.009C98.0359 420.914 98.6928 420.558 115.217 416.12C124.687 413.579 141.936 408.434 153.551 404.69C168.426 399.894 174.002 398.673 172.411 400.56C171.17 402.034 168.124 403.271 165.641 403.312C163.16 403.35 160.219 404.669 159.106 406.24C157.721 408.195 156.538 408.584 155.353 407.469C154.403 406.572 152.786 406.064 151.763 406.338C150.739 406.612 150.459 407.362 151.139 408.002C151.819 408.641 144.661 411.048 135.233 413.349C125.805 415.65 114.389 418.994 109.867 420.78L101.641 424.028L103.535 431.863C104.577 436.175 105.443 438.127 105.458 436.202C105.475 434.276 106.266 432.494 107.214 432.24C108.163 431.986 108.701 430.89 108.411 429.807C108.121 428.723 107.094 428.673 106.127 429.698C105.087 430.803 104.438 430.48 104.532 428.905C104.723 425.73 107.431 424.637 133.919 417.043C160.383 409.457 160.796 409.39 161.657 412.603C162.141 414.41 163.387 414.645 165.333 413.294C166.954 412.171 167.899 412 167.438 412.915C166.975 413.829 158.561 417.049 148.739 420.072C138.916 423.097 130.484 426.324 130.001 427.246C129.517 428.165 141.124 425.133 155.794 420.506C170.464 415.877 189.132 410.161 197.278 407.802C211.039 403.816 211.406 403.598 202.436 404.713C197.127 405.375 206.047 402.807 222.259 399.012L251.733 392.108L247.87 385.943C245.746 382.55 243.484 380.333 242.843 381.014C242.201 381.694 241.668 380.596 241.655 378.575C241.644 376.553 238.248 369.459 234.111 362.811C227.893 352.822 226.602 349.393 226.658 343.052C226.781 329.544 225.352 326.951 219.182 329.47C216.127 330.717 213.556 330.81 213.255 329.684C212.958 328.578 214.84 327.539 217.486 327.345C224.18 326.856 225.273 324.987 224.366 315.578C223.624 307.887 223.203 307.291 218.131 306.775C212.566 306.207 192.671 311.52 151.997 324.432ZM301.238 283.904C299.052 284.964 295.285 285.974 292.862 286.148C290.438 286.321 292.226 285.453 296.833 284.218C301.44 282.984 303.423 282.842 301.238 283.904ZM115.678 339.572C114.023 340.514 110.677 341.428 108.242 341.604C105.808 341.78 107.161 341.008 111.251 339.89C115.34 338.772 117.333 338.63 115.678 339.572ZM80.5245 351.473C80.1899 352.584 80.7473 353.741 81.7608 354.046C82.7742 354.351 83.2781 353.38 82.8786 351.889C82.0377 348.751 81.3762 348.635 80.5245 351.473ZM103.746 345.388C104.021 346.412 102.989 347.586 101.453 347.998C99.9172 348.409 98.4364 347.908 98.1621 346.885C97.8877 345.861 98.9197 344.686 100.455 344.275C101.991 343.864 103.472 344.365 103.746 345.388ZM105.741 352.834C106.016 353.858 104.425 355.181 102.206 355.776C95.8311 357.484 99.249 357.925 109.489 356.716C116.011 355.945 118.338 355.097 117.104 353.933C116.095 352.982 116.766 351.815 118.66 351.228C121.634 350.305 121.545 350.129 117.84 349.592C112.051 348.753 105.144 350.604 105.741 352.834ZM82.9652 361.929C82.281 368.437 85.605 369.8 93.2767 366.163C97.2863 364.262 100.986 361.899 101.501 360.911C102.015 359.923 100.615 360.119 98.388 361.346C95.5911 362.887 94.4223 362.791 94.6059 361.035C94.795 359.246 93.2613 359.188 89.4401 360.839C85.6936 362.455 84.236 362.421 84.7464 360.722C85.1537 359.368 84.9905 358.394 84.3875 358.556C83.7825 358.718 83.1419 360.236 82.9652 361.929ZM259.522 315.213C257.203 316.244 254.331 316.524 253.142 315.838C251.832 315.081 253.496 314.344 257.36 313.965C262.759 313.438 263.09 313.629 259.522 315.213ZM144.263 345.828C143.123 346.688 141.029 347.249 139.61 347.074C138.193 346.902 139.126 346.199 141.685 345.513C144.244 344.827 145.406 344.969 144.263 345.828ZM165.683 340.142C164.016 341.092 161.086 341.877 159.168 341.888C157.25 341.901 158.614 341.124 162.197 340.164C165.78 339.204 167.35 339.195 165.683 340.142ZM272.731 311.393C271.607 312.241 269.103 312.945 267.165 312.958C265.227 312.97 266.147 312.277 269.208 311.417C272.27 310.557 273.854 310.545 272.731 311.393ZM211.783 331.636C211.887 332.027 206.285 333.732 199.331 335.423C186.829 338.464 186.789 338.457 195.694 334.88C204.164 331.479 211.352 330.028 211.783 331.636ZM302.13 305.652C298.425 307.074 291.725 308.875 287.242 309.653C282.758 310.434 285.79 309.27 293.979 307.07C302.167 304.868 305.834 304.23 302.13 305.652ZM114.129 359.941C116.048 359.93 118.977 359.145 120.644 358.195C122.312 357.248 120.742 357.257 117.159 358.217C113.576 359.178 112.212 359.954 114.129 359.941ZM361.712 293.535C360.589 294.383 358.084 295.088 356.146 295.101C354.209 295.113 355.128 294.42 358.19 293.56C361.251 292.699 362.836 292.688 361.712 293.535ZM267.474 368.233C267.596 368.685 266.995 369.796 266.141 370.703C265.287 371.61 264.35 371.464 264.06 370.381C263.77 369.298 264.369 368.185 265.393 367.911C266.417 367.637 267.353 367.781 267.474 368.233ZM286.711 363.603C284.539 364.658 280.354 365.791 277.411 366.123C274.467 366.453 276.243 365.59 281.357 364.204C286.473 362.819 288.882 362.549 286.711 363.603ZM315.946 357.565C315.494 358.349 313.905 358.846 312.419 358.668C310.774 358.472 311.097 357.913 313.242 357.242C315.182 356.637 316.398 356.782 315.946 357.565ZM216.966 386.347C211.693 388.163 202.896 390.52 197.422 391.584C191.947 392.648 196.261 391.163 207.011 388.283C217.76 385.402 222.239 384.531 216.966 386.347ZM329.474 355.935C329.022 356.719 327.434 357.216 325.947 357.038C324.303 356.842 324.626 356.283 326.77 355.613C328.711 355.007 329.927 355.152 329.474 355.935ZM345.411 351.865C343.24 352.919 339.055 354.053 336.111 354.385C333.167 354.715 334.943 353.852 340.058 352.465C345.173 351.081 347.582 350.81 345.411 351.865ZM184.785 396.7C184.333 397.483 182.744 397.981 181.258 397.802C179.614 397.607 179.937 397.047 182.081 396.377C184.022 395.771 185.238 395.916 184.785 396.7ZM405.926 339.556C404.786 340.416 402.692 340.977 401.272 340.803C399.855 340.63 400.788 339.927 403.348 339.241C405.907 338.556 407.068 338.697 405.926 339.556ZM175.882 409.851C175.523 411.044 174.443 412.231 173.479 412.49C172.515 412.748 171.503 412.121 171.229 411.097C170.954 410.074 172.036 408.886 173.632 408.459C175.227 408.031 176.241 408.657 175.882 409.851ZM189.639 407.369C189.187 408.153 187.598 408.65 186.112 408.472C184.468 408.276 184.791 407.717 186.935 407.046C188.876 406.441 190.092 406.586 189.639 407.369ZM115.022 432.143C113.635 433.676 113.6 434.469 114.938 434.131C116.161 433.819 117.455 432.588 117.814 431.395C118.622 428.701 117.978 428.873 115.022 432.143ZM109.465 436.547C110.51 437.983 110.684 440.637 109.854 442.444C109.023 444.25 109.118 446.457 110.065 447.349C111.012 448.24 110.801 449.234 109.597 449.557C108.276 449.911 107.269 448.233 107.057 445.31C106.863 442.652 106.105 441.112 105.376 441.888C104.644 442.664 105.898 450.157 108.159 458.539C111.002 469.065 112.6 472.764 113.33 470.502C114.097 468.122 114.573 467.89 115.068 469.655C115.442 470.991 116.448 471.342 117.302 470.435C119.449 468.156 116.048 456.365 112.976 455.444C111.481 454.995 111.193 455.372 112.262 456.376C113.247 457.303 113.341 458.816 112.473 459.739C111.605 460.66 110.487 459.892 109.988 458.031C109.489 456.167 110.476 453.15 112.181 451.322C115.501 447.765 113.734 435.786 109.711 434.578C108.479 434.207 108.374 435.044 109.465 436.547ZM397.369 362.206C404.966 360.954 410.197 361.041 411.115 362.435C412.286 364.214 409.214 365.454 396.404 368.372C387.497 370.399 380.381 372.687 380.59 373.453C380.905 374.614 386.975 373.729 391.42 371.878C392.05 371.615 393.65 372.308 394.977 373.419C396.864 374.994 397.46 374.872 397.709 372.856C398.173 369.135 408.618 366.801 410.878 369.912C413.303 373.252 412.184 375.004 406.854 376.213C404.482 376.749 394.291 379.091 384.204 381.415C373.373 383.91 364.715 384.975 363.056 384.017C359.169 381.773 361.485 378.536 369.167 375.479C373.517 373.748 371.82 373.772 363.701 375.555C357.225 376.977 351.031 378.155 349.939 378.175C348.847 378.194 344.575 379.002 340.445 379.971C334.887 381.274 332.728 380.953 332.133 378.732C331.414 376.048 334.172 375.122 358.217 369.98C373.006 366.815 390.625 363.319 397.369 362.206ZM119.423 460.889C121.057 466.059 122.313 467.223 125.805 466.8C134.953 465.689 131.612 475.578 121.966 478.163L115.824 479.809L121.282 498.795L126.743 517.781L123.551 501.678C121.796 492.822 121.285 486.409 122.416 487.427C124.289 489.116 128.886 509.267 130.374 522.304C130.773 525.793 131.564 527.021 132.664 525.852C133.712 524.74 134.219 525.282 134.007 527.29C133.462 532.487 141.823 535.436 150.643 533.155C154.965 532.036 169.715 527.743 183.421 523.612L208.342 516.1L190.38 519.8C180.501 521.833 196.864 516.925 226.742 508.894C256.619 500.86 281.378 493.749 281.757 493.089C282.851 491.194 274.422 477.159 273.058 478.606C272.384 479.321 271.822 477.974 271.809 475.609C271.793 472.976 271.174 471.959 270.209 472.981C269.243 474.008 268.499 472.773 268.279 469.786L267.925 464.919L249.836 470.897C239.886 474.186 227.851 478.246 223.086 479.92C214.212 483.038 211.412 481.576 214.851 475.619C215.958 473.702 215.824 472.964 214.439 473.335C213.313 473.637 211.606 470.952 210.646 467.369L208.9 460.854L225.576 456.386C234.747 453.928 241.633 451.333 240.875 450.621C240.118 449.908 243.46 448.881 248.301 448.342C254.117 447.691 257.136 446.603 257.198 445.13C257.306 442.577 256.09 422.538 255.75 421.27C255.627 420.808 251.587 421.643 246.771 423.125L238.016 425.818L246.118 424.412C250.575 423.638 254.391 423.641 254.599 424.418C254.807 425.194 249.562 426.557 242.941 427.445C236.322 428.335 213.063 434.508 191.255 441.163C164.506 449.326 155.926 452.431 164.883 450.703L178.162 448.143L168.366 452.533C160.344 456.129 159.474 456.925 163.558 456.926C168.529 456.93 168.533 456.937 164.658 459.169C156.821 463.68 161.8 465.494 173.501 462.389C181.704 460.213 184.46 460.055 182.834 461.854C181.094 463.776 182.096 463.992 186.893 462.731C190.395 461.809 192.849 461.765 192.347 462.634C191.848 463.502 193.054 465.258 195.032 466.533C197.01 467.811 199.79 471.207 201.213 474.082C203.266 478.238 203.037 480.622 200.092 485.722C198.055 489.25 195.527 492.368 194.471 492.651C193.416 492.933 193.236 493.558 194.07 494.041C194.905 494.522 196.77 493.391 198.218 491.529C200.322 488.821 200.544 488.755 199.328 491.194C198.301 493.25 191.63 496.105 178.865 499.952C162.773 504.803 159.453 505.282 156.782 503.13C155.053 501.739 152.521 500.899 151.161 501.263C149.798 501.628 148.487 500.858 148.246 499.55C148.006 498.244 146.673 492.437 145.286 486.644C143 477.099 143.137 476.113 146.748 476.091C148.939 476.077 150.528 475.308 150.279 474.379C150.031 473.452 156.28 470.812 164.169 468.514L178.511 464.336L167.069 466.241C158.229 467.712 155.288 467.443 154.135 465.054C153.316 463.355 153.543 461.722 154.643 461.427C157.75 460.595 155.639 455.748 152.004 455.365C150.218 455.177 142.602 456.673 135.079 458.689C122.395 462.088 121.254 462.066 119.395 458.403C118.292 456.229 118.304 457.348 119.423 460.889ZM184.624 446.198C184.731 446.6 183.654 447.776 182.228 448.813C180.742 449.891 179.911 449.779 180.281 448.551C180.899 446.488 184.22 444.69 184.624 446.198ZM124.611 471.332C124.276 472.443 124.996 473.648 126.209 474.013C127.422 474.377 128.063 473.369 127.636 471.774C126.76 468.503 125.514 468.322 124.611 471.332ZM139.024 469.602C139.573 471.65 139.184 473.549 138.16 473.824C137.137 474.098 135.85 472.647 135.301 470.6C134.753 468.552 135.142 466.652 136.165 466.378C137.189 466.104 138.476 467.555 139.024 469.602ZM148.1 481.136C148.634 483.129 162.348 500.227 165.115 502.346C165.557 502.685 166.312 502.279 166.795 501.445C167.275 500.61 166.307 498.964 164.643 497.786C162.981 496.608 161.864 494.83 162.162 493.835C162.46 492.841 159.273 489.032 155.078 485.371C150.883 481.709 147.743 479.803 148.1 481.136ZM251.967 455.114C251.64 456.195 252.934 456.193 254.84 455.108C258.882 452.806 259.092 451.395 255.239 452.428C253.763 452.823 252.291 454.032 251.967 455.114ZM224.908 463.913C226.394 464.091 227.982 463.593 228.435 462.81C228.887 462.026 227.671 461.881 225.731 462.487C223.586 463.157 223.263 463.717 224.908 463.913ZM232.225 461.91C233.645 462.084 235.739 461.523 236.879 460.663C238.021 459.804 236.86 459.662 234.301 460.348C231.741 461.034 230.809 461.737 232.225 461.91ZM256.385 460.865C256.49 461.258 258.37 461.568 260.562 461.555C262.755 461.542 263.876 460.896 263.053 460.124C261.617 458.771 255.991 459.396 256.385 460.865ZM225.858 471.65C227.776 471.639 230.706 470.854 232.373 469.904C234.04 468.957 232.47 468.966 228.887 469.927C225.304 470.887 223.94 471.663 225.858 471.65ZM237.943 468.358C239.363 468.532 241.457 467.971 242.597 467.111C243.739 466.252 242.578 466.11 240.019 466.796C237.459 467.482 236.526 468.185 237.943 468.358ZM133.686 511.432C133.858 513.855 132.99 512.067 131.756 507.46C130.521 502.853 130.379 500.87 131.441 503.056C132.502 505.241 133.511 509.009 133.686 511.432ZM139.059 529.298C139.313 530.245 141.089 531.012 143.007 531.001C145.947 530.983 146.029 531.139 143.52 532.007C141.886 532.572 139.17 532.057 137.484 530.863C135.366 529.364 135.064 528.519 136.509 528.132C137.657 527.824 138.805 528.348 139.059 529.298ZM270.552 493.42C270.1 494.204 268.511 494.701 267.025 494.523C265.381 494.327 265.704 493.768 267.848 493.097C269.789 492.492 271.004 492.636 270.552 493.42Z" fill="#199402"/>
</svg>
