<svg width="231" height="283" viewBox="0 0 231 283" fill="none" xmlns="http://www.w3.org/2000/svg">
<path opacity="0.47" fill-rule="evenodd" clip-rule="evenodd" d="M69.2268 21.3563C72.9404 20.5642 76.0691 20.2567 76.1803 20.672C76.4161 21.552 63.9446 24.5215 62.2049 23.9991C61.5588 23.8053 54.1555 25.8852 45.7546 28.6216C31.8226 33.1603 31.1428 33.4725 38.0279 32.1775C42.1799 31.3959 43.966 31.2747 41.9975 31.9068C39.5031 32.7073 38.4219 33.6166 38.4295 34.9035C38.441 36.6629 38.4134 36.6703 37.8642 35.0549C37.5468 34.1228 36.5092 33.5613 35.5571 33.808C34.6053 34.0556 30.003 35.0784 25.329 36.0823C20.6548 37.0853 18.0042 37.8473 19.4389 37.7758C20.8736 37.7044 22.7658 37.9713 23.6436 38.3705C24.6111 38.8091 25.4046 38.661 25.6572 37.9938C26.2009 36.5582 29.3847 35.4344 29.6889 36.5699C29.8182 37.0522 30.7634 37.2219 31.7894 36.947C33.4151 36.5114 33.8847 37.2578 35.4526 42.7777L37.2514 49.108L33.1518 50.5311L29.0532 51.9539L30.2771 57.7056C30.9502 60.8685 31.0532 63.5772 30.5057 63.7239C29.9582 63.8706 29.9103 64.3666 30.3984 64.8269C31.8171 66.1638 32.8775 64.2535 32.1741 61.6285C31.5878 59.4404 31.9255 59.1142 35.8625 58.0593C38.8042 57.271 40.5061 57.3246 41.1609 58.2255C41.6907 58.9559 41.6945 59.6685 41.1697 59.8092C40.6439 59.95 40.329 60.4954 40.4699 61.0212C40.6106 61.546 41.2278 61.628 41.84 61.2018C43.4258 60.1002 47.6145 65.3312 48.4692 69.4837C48.8665 71.4126 49.6304 74.8197 50.1669 77.0549L51.142 81.1202L46.2236 81.5076C43.5189 81.7206 38.6165 82.5151 35.3304 83.2729L29.3555 84.6498L27.146 78.8979L24.9356 73.1463L26.7194 79.2786C27.6994 82.6521 28.1082 85.7167 27.6265 86.089C27.1449 86.4622 30.3314 85.9245 34.7079 84.8956C39.0844 83.8668 41.0378 83.6479 39.0492 84.4101C35.1552 85.9019 35.506 87.7597 39.4816 86.6944C40.9642 86.2971 42.0418 86.6174 42.2861 87.5289C42.5327 88.4493 43.6138 88.7591 45.1488 88.3478C47.5677 87.6997 48.4084 88.8013 49.6627 94.2636C49.8193 94.9427 50.333 95.0884 50.8037 94.588C51.2754 94.0873 51.5162 94.1613 51.3387 94.7534C51.1601 95.3458 49.6773 96.2992 48.0423 96.8737C44.9897 97.9465 44.2275 97.1103 43.3582 91.7352C43.2003 90.7594 42.573 90.0953 41.9643 90.2584C41.3557 90.4215 41.2759 90.9483 41.7866 91.43C42.2974 91.9116 42.1458 93.461 41.4502 94.8739C40.7545 96.2868 40.6265 96.9967 41.1678 96.452C41.7078 95.9066 42.602 95.8859 43.1536 96.4053C43.7063 96.9254 43.5537 97.9379 42.8166 98.6556C42.0795 99.3733 41.9026 100.548 42.4235 101.265C43.1628 102.284 42.4826 102.807 39.319 103.655C36.4808 104.416 35.1554 104.322 34.8929 103.343C34.687 102.574 34.8262 101.705 35.2018 101.41C35.5776 101.116 35.2344 99.6215 34.4381 98.0903C33.44 96.1723 33.1257 95.9583 33.4265 97.4045C33.8358 99.3661 31.949 103.515 30.4683 103.912C29.3348 104.216 28.7893 100.562 29.3487 96.4111C29.8358 92.7956 31.483 90.6171 32.0707 92.81C32.2026 93.3023 33.0461 93.2856 33.9451 92.774C35.3468 91.9756 35.6751 92.4078 36.2473 95.806C36.7345 98.7015 37.3677 99.8175 38.5991 99.9464C40.0144 100.095 40.011 99.7468 38.581 97.7637C36.2385 94.5184 36.3246 90.7123 38.7553 90.0609C42.0946 89.1662 40.4049 87.6386 36.4138 87.9436C34.1242 88.1193 32.0282 88.8713 31.1212 89.8428C30.2955 90.727 28.7267 91.6908 27.6347 91.9834C26.5417 92.2763 25.7721 92.9794 25.9239 93.5457C26.0756 94.1119 25.6261 94.6521 24.9236 94.7452C20.0952 95.3897 19.978 95.7849 22.3575 103.383C24.8746 111.419 24.7089 114.1 22.0352 108.6C20.3719 105.178 20.299 105.147 20.037 107.744C19.7936 110.155 27.5133 135.986 28.1478 134.885C28.2836 134.65 27.6239 131.237 26.6822 127.3C25.5839 122.712 25.4098 120.508 26.1984 121.158C26.9854 121.807 26.92 121.069 26.0176 119.114C24.9546 116.808 24.9651 115.96 26.0621 115.666C26.8622 115.451 27.6361 115.72 27.7815 116.262C28.211 117.865 32.9266 120.189 33.2912 118.977C33.6865 117.659 38.3487 116.24 38.6453 117.347C38.7587 117.77 38.1349 118.994 37.2594 120.067C36.1402 121.438 35.9708 123.149 36.6879 125.826C37.6958 129.587 37.6655 129.64 34.2385 130.081C32.3302 130.326 30.1969 130.355 29.4977 130.145C28.7986 129.935 28.3303 130.121 28.4558 130.557C28.7946 131.731 30.9683 133.577 31.6682 133.285C33.8626 132.372 34.5426 132.648 33.2637 133.936C32.2434 134.962 32.1397 136.071 32.9337 137.428C34.069 139.369 34.0322 139.373 31.4485 137.63C29.9916 136.648 28.8922 136.191 29.0058 136.615C29.461 138.314 33.3675 139.963 34.6784 139.011C35.5962 138.344 35.931 138.457 35.6638 139.346C35.2035 140.88 44.162 138.563 60.2798 132.98C69.3116 129.851 69.4985 129.74 63.088 131.295C59.3114 132.21 56.3648 132.712 56.5403 132.408C57.2719 131.141 69.383 127.498 70.7602 128.131C72.335 128.855 102.713 119.689 102.414 118.58C102.326 118.252 103.918 117.537 105.953 116.991C109.13 116.14 109.561 115.696 108.999 113.849C108.638 112.666 108.771 111.826 109.292 111.983C110.164 112.245 110.135 110.381 109.222 107.404C109.018 106.738 109.215 106.303 109.661 106.437C110.107 106.571 110.616 104.998 110.792 102.942C111.093 99.4107 110.752 98.8201 104.601 92.234C97.3351 84.4545 95.338 81.9139 96.8419 82.3653C97.4009 82.5337 97.93 81.9828 98.0187 81.1417C98.1474 79.9177 97.6306 79.942 95.4294 81.2645C93.0779 82.677 92.797 82.6624 93.4862 81.1625C93.93 80.1987 95.007 79.187 95.8809 78.9168C96.9567 78.5831 96.6757 78.3275 95.0115 78.1263C93.3373 77.9236 92.2866 76.9617 91.7186 75.1103L90.8856 72.3921L90.7059 75.0835C90.5378 77.6048 90.5008 77.6285 90.1192 75.4628C89.896 74.1914 90.0517 73.0797 90.4636 72.9915C90.8759 72.9043 92.4689 72.4965 94.0029 72.0855C96.548 71.4035 96.8418 71.624 97.3716 74.6191C97.8589 77.3771 97.9578 77.4775 97.9871 75.2472C98.0074 73.7879 98.4303 70.915 98.9281 68.8626C99.848 65.0667 98.322 60.78 96.6723 62.531C96.1424 63.0949 95.9424 62.9402 96.1801 62.1501C96.6373 60.6288 87.4477 50.3716 86.5151 51.3616C86.1767 51.7208 85.6071 50.9208 85.249 49.5841C84.8908 48.2474 84.9692 47.2653 85.4233 47.4016C85.8765 47.5382 86.6688 43.5069 87.1827 38.4442L88.1176 29.2393L84.882 25.9277C83.1031 24.1068 81.2786 23.0076 80.8291 23.4844C80.3757 23.9664 80.1863 23.7729 80.4036 23.0486C80.6187 22.3322 80.0746 20.9766 79.194 20.0379C77.7771 18.526 76.7252 18.5858 70.0344 20.5626L62.4755 22.7952L69.2268 21.3563ZM95.8695 14.192C97.4295 14.0162 99.6475 13.4155 100.798 12.8566C101.949 12.2976 100.672 12.441 97.9611 13.1748C95.2504 13.9096 94.3093 14.3669 95.8695 14.192ZM100.387 14.337C97.2282 15.5694 95.2446 16.4963 95.9794 16.3977C96.714 16.2982 97.1777 16.6751 97.0095 17.2351C96.6248 18.5181 100.302 24.0236 101.028 23.2509C101.323 22.937 101.993 24.4735 102.515 26.6661C103.037 28.8587 102.996 31.1514 102.423 31.7596C101.849 32.368 101.739 33.2033 102.176 33.6148C102.613 34.0264 102.686 35.1305 102.34 36.0681C101.825 37.4579 101.726 37.4264 101.802 35.8973C101.98 32.3151 101.114 34.2642 99.8472 40.295L98.5734 46.3607L102.505 52.0063C104.667 55.1117 107.677 59.1055 109.193 60.8825C110.71 62.6595 111.534 63.9877 111.024 63.8347C110.513 63.6818 110.017 64.3127 109.92 65.2386C109.803 66.344 110.105 66.5963 110.799 65.9757C111.381 65.4551 111.181 65.9601 110.357 67.0965C109.532 68.2331 109.387 69.0206 110.033 68.8474C110.747 68.6563 111.624 70.0834 112.266 72.4786C112.933 74.9695 112.87 76.5523 112.094 76.7698C111.275 77.0008 111.443 77.3024 112.601 77.6754C113.555 77.9831 113.867 78.368 113.294 78.531C112.72 78.6933 111.087 78.2079 109.663 77.4528C107.429 76.2656 107.052 76.3073 106.9 77.7596C106.802 78.6846 107.142 79.8348 107.653 80.3174C108.202 80.8334 108.038 81.0294 107.256 80.7938C106.417 80.5419 106.128 81.1425 106.473 82.4269C106.772 83.5436 107.412 84.3524 107.894 84.2231C108.376 84.0939 108.899 84.5481 109.055 85.2337C109.775 88.3819 110.671 89.8968 111.373 89.1515C111.795 88.7034 112.6 88.7711 113.162 89.3013C113.802 89.9029 113.688 90.1151 112.859 89.8657C111.223 89.3757 111.275 89.5797 113.662 93.0921C114.716 94.6401 115.818 95.6503 116.114 95.3374C116.41 95.0235 117.105 96.4581 117.658 98.5238C118.212 100.591 118.332 102.181 117.923 102.058C116.933 101.761 116.619 105.095 117.554 105.975C117.959 106.356 117.855 107.127 117.325 107.69C116.686 108.369 116.478 108.183 116.709 107.136C116.9 106.268 116.582 106.623 116.003 107.924C115.423 109.226 115.335 110.82 115.804 111.468C116.275 112.116 116.203 112.509 115.644 112.341C114.77 112.079 113.704 115.418 114.57 115.703C114.745 115.759 130.343 112.458 149.234 108.363C181.403 101.391 183.728 100.767 185.944 98.5068C187.245 97.1791 188.41 95.3275 188.531 94.392C188.954 91.1428 170.244 5.78705 168.563 3.29192C165.709 -0.941421 161.959 -0.740097 135.437 5.0648C109.895 10.656 109.667 10.7171 100.387 14.337ZM10.1587 40.6283L4.41529 42.8693L10.0738 41.5307C13.1858 40.7941 15.8876 39.6747 16.0777 39.0423C16.2677 38.4099 16.3059 38.0042 16.1626 38.1399C16.0194 38.2765 13.3177 39.3959 10.1587 40.6283ZM136.111 6.51585C135.515 6.96509 134.188 7.33871 133.161 7.34534C132.134 7.35196 132.621 6.98455 134.244 6.52867C135.866 6.0728 136.706 6.0666 136.111 6.51585ZM1.3877 45.8861C0.563792 47.8187 0.615706 47.8269 2.08202 45.9993C2.95384 44.9124 3.81912 43.8485 4.00379 43.634C4.18846 43.4196 3.87571 43.3691 3.30947 43.5208C2.74322 43.6726 1.87821 44.7375 1.3877 45.8861ZM0.531085 53.2525C0.986958 54.8749 1.35437 55.3622 1.34775 54.3352C1.34112 53.3082 0.967506 51.981 0.518257 51.3856C0.0690076 50.7901 0.0752118 51.6301 0.531085 53.2525ZM130.846 17.7797C132.661 17.9647 133.872 18.8404 134.313 20.2869C134.939 22.3363 135.013 22.2786 135.255 19.5514C135.443 17.4264 136.149 16.4771 137.755 16.1865C139.61 15.8501 140.188 16.4141 141.147 19.4942C142.251 23.0427 142.177 23.2136 139.486 23.3417C137.309 23.4449 137.07 23.6241 138.431 24.1306C139.492 24.5252 139.732 24.9146 139.034 25.1121C138.397 25.2913 136.991 24.9277 135.91 24.3041C134.829 23.6791 134.072 23.6441 134.228 24.2261C134.383 24.8071 133.179 25.6395 131.551 26.0756C128.701 26.8392 128.548 26.7038 127.402 22.4294C126.142 17.7238 126.433 17.3307 130.846 17.7797ZM148.673 13.0293C148.324 14.194 150.379 14.0651 153.873 12.704C155.678 12.0003 155.721 12.0872 154.622 14.232C153.747 15.9383 153.828 16.8892 154.944 18.0375C156.851 19.9955 156.162 21.2385 153.776 20.1416C152.52 19.5637 152.032 19.6467 152.235 20.4043C152.886 22.8311 150.501 21.8619 149.684 19.3666L148.809 16.6934L149.126 19.5162C149.509 22.9419 148.493 23.3938 146.144 20.844C144.508 19.0702 144.451 19.0729 145.32 20.8881C145.895 22.0905 145.738 22.9796 144.91 23.2014C143.982 23.4501 143.211 22.2378 142.42 19.2862C141.315 15.1607 142.341 13.1335 144.225 15.7259C144.965 16.7465 145.402 16.529 146.527 14.5803C148.007 12.0173 149.246 11.1217 148.673 13.0293ZM4.96078 65.282C6.05114 69.3513 6.67194 70.9697 6.33872 68.8778C6.00676 66.7865 5.11465 63.4571 4.35625 61.4791C3.59911 59.5018 3.87043 61.2128 4.96078 65.282ZM24.3622 62.2975C24.19 62.8702 25.1857 63.0347 26.5736 62.6628C29.5963 61.8529 29.6902 61.2251 26.7854 61.2432C25.6251 61.2496 24.5344 61.7248 24.3622 62.2975ZM103.353 43.4739C103.516 44.2942 103.323 44.313 102.737 43.5321C102.04 42.6034 101.648 42.7084 100.596 44.106C99.4453 45.6333 99.4018 45.5931 100.191 43.7416C101.117 41.5725 102.946 41.4176 103.353 43.4739ZM24.8264 65.7743C25.0432 66.5832 25.8616 66.678 27.0082 66.025C28.0173 65.4501 28.8113 64.862 28.7724 64.717C28.7336 64.572 27.7519 64.4596 26.5906 64.4663C25.2711 64.4741 24.6097 64.9654 24.8264 65.7743ZM32.9676 65.9866C32.8224 66.4707 35.2159 66.1857 38.2867 65.3544L43.8695 63.8437L45.9024 69.1142L47.9353 74.3847L46.7612 69.3599C46.1077 66.5618 44.9217 63.9508 44.0862 63.4684C42.4438 62.5202 33.3929 64.5711 32.9676 65.9866ZM26.4698 68.6994C27.2575 68.7939 28.0993 68.5303 28.3391 68.115C28.5788 67.6997 27.9344 67.6229 26.906 67.9439C25.7694 68.2992 25.5983 68.5956 26.4698 68.6994ZM9.8853 80.7918C10.93 84.8247 11.9452 87.8441 12.144 87.5011C12.858 86.2631 10.8427 77.2544 9.43178 75.3783C8.39893 74.0056 8.52894 75.5483 9.8853 80.7918ZM92.508 58.2122C92.6534 58.7548 91.8407 58.2589 90.7019 57.1102C89.563 55.9616 88.5124 54.5778 88.367 54.0352C88.2216 53.4927 89.0344 53.9886 90.1732 55.1372C91.312 56.2859 92.3627 57.6697 92.508 58.2122ZM21.1596 75.7377C19.471 78.235 19.4801 78.3087 21.4265 77.7871C22.5363 77.4898 23.5297 76.4422 23.633 75.4587C23.9152 72.7673 23.1064 72.8582 21.1596 75.7377ZM158.096 40.7247C159.925 43.2427 161.102 49.4289 160.197 51.7658C159.042 54.7472 157.48 53.8323 158.233 50.6152C158.805 48.1632 157.654 44.6166 155.32 41.6462C154.482 40.5787 154.566 39.9978 155.599 39.7211C156.413 39.503 157.536 39.9548 158.096 40.7247ZM156.139 44.4125C157.602 47.0423 157.175 51.9866 155.445 52.4503C154.833 52.6141 154.423 52.0104 154.534 51.1082C154.646 50.2061 154.784 48.6232 154.842 47.5894C154.942 45.8001 154.915 45.8072 154.3 47.7348C153.36 50.6722 151.881 50.6507 151.088 47.6893C150.584 45.809 150.837 45.1639 152.031 45.2892C153.025 45.3929 153.511 44.8937 153.274 44.0118C152.626 41.5909 154.734 41.8857 156.139 44.4125ZM22.1471 80.4372C20.1784 81.5578 20.4082 82.9088 22.6071 83.1401C23.5044 83.2338 24.1167 82.8551 23.9673 82.2978C23.8177 81.7394 24.2073 81.4373 24.8327 81.625C25.4836 81.8206 25.5433 81.3806 24.9717 80.5928C24.4224 79.837 23.9241 79.2875 23.8631 79.3715C23.8021 79.4555 23.0308 79.935 22.1471 80.4372ZM46.9801 79.3986C45.5574 80.521 45.5454 80.705 46.9211 80.3977C47.8486 80.1894 48.7631 79.5024 48.9531 78.8699C49.3505 77.5475 49.316 77.5568 46.9801 79.3986ZM15.4051 96.3176C16.6409 100.929 17.3169 102.77 16.9064 100.409C16.4965 98.0468 15.4854 94.2735 14.6596 92.0238C13.8344 89.7729 14.1694 91.7058 15.4051 96.3176ZM24.4584 88.0766C24.9363 89.8601 25.649 90.4008 27.034 90.0297C28.0876 89.7474 29.1041 88.9992 29.2941 88.3668C29.4841 87.7344 28.9469 87.4025 28.1015 87.6291C27.2561 87.8556 26.3851 87.3753 26.1671 86.5614C25.949 85.7476 25.3267 85.2006 24.7841 85.346C24.2415 85.4914 24.095 86.7201 24.4584 88.0766ZM178.22 47.6037C178.116 48.4742 177.82 48.3031 177.464 47.1665C177.143 46.1381 177.22 45.4937 177.635 45.7335C178.051 45.9732 178.314 46.8151 178.22 47.6037ZM61.4139 81.8031C61.2368 82.3929 62.3245 82.6957 63.8298 82.4774C65.3351 82.2591 66.9349 82.6424 67.3855 83.3295C67.95 84.1933 67.7145 84.4392 66.6224 84.1239C65.368 83.7633 65.3569 83.8995 66.5689 84.7843C67.4089 85.3977 68.3275 87.0505 68.6113 88.4568C69.0654 90.7119 68.6985 91.1222 65.5077 91.9317C63.5167 92.4366 62.007 92.4531 62.1532 91.9688C62.2982 91.4838 62.9875 91.2589 63.6832 91.4679C64.5099 91.7158 64.5591 91.3115 63.8266 90.3024C63.2089 89.4529 62.3502 87.4362 61.9173 85.8203C61.3582 83.7339 60.8306 83.1933 60.0958 83.9548C59.393 84.6823 59.3519 84.375 59.9674 82.9942C60.9288 80.8409 61.957 79.9944 61.4139 81.8031ZM74.8462 81.6338C76.8659 83.9707 77.0507 84.0015 77.0378 81.9961C77.029 80.5467 76.5557 79.9324 75.6373 80.1785C73.2993 80.8049 73.573 78.6223 75.9222 77.9114C77.1329 77.5447 79.6728 76.7446 81.5669 76.1345L85.012 75.0232L85.6627 79.8468C86.0688 82.8581 86.7602 84.7558 87.5018 84.8954C88.1557 85.0194 87.5095 85.1492 86.0654 85.1851C82.3559 85.2783 81.684 84.7319 80.4044 80.5876C79.5538 77.8317 79.1563 77.3778 78.805 78.7619C78.5478 79.775 78.6556 82.1029 79.0436 83.9338C79.8654 87.8096 77.4354 88.9334 75.8836 85.3948C74.7436 82.7937 72.4899 81.0081 70.9317 81.471C70.3236 81.6519 70.7246 82.0436 71.8229 82.3424C74.1722 82.9817 75.5805 87.1286 73.8705 88.3703C71.612 90.0116 69.9104 88.4713 68.9373 83.9086C68.0713 79.8479 68.2017 79.407 70.31 79.2534C71.6001 79.1593 73.6251 80.2217 74.8462 81.6338ZM123.141 65.2337C122.52 65.9076 122.435 66.8566 122.952 67.3441C123.469 67.8304 123.23 69.3746 122.421 70.7768C121.286 72.7418 121.288 73.233 122.43 72.9269C123.244 72.7089 124.029 72.9744 124.174 73.5169C124.32 74.0595 123.329 74.8008 121.972 75.1642C118.938 75.9773 118.393 74.3926 120.412 70.6277C121.256 69.0568 121.424 67.9099 120.787 68.0807C120.15 68.2514 119.748 68.8349 119.893 69.3775C120.038 69.92 119.681 70.4916 119.099 70.6476C117.022 71.204 117.828 67.3669 120.064 66.0478C123.335 64.1159 124.438 63.8246 123.141 65.2337ZM17.7214 95.9613C17.7212 99.6144 18.9885 103.618 20.2671 104.002C20.9812 104.217 20.8597 102.268 19.9475 98.8635C18.3753 92.9958 17.7221 92.1442 17.7214 95.9613ZM46.9787 86.3815C46.7389 86.7968 45.8971 87.0604 45.1094 86.9659C44.2379 86.8621 44.409 86.5657 45.5456 86.2104C46.574 85.8894 47.2184 85.9662 46.9787 86.3815ZM57.8202 87.6276C58.3419 89.5749 58.1995 91.3397 57.4782 91.8639C56.7986 92.3579 56.5569 93.0581 56.9403 93.4195C57.3249 93.7817 56.7904 94.3753 55.7523 94.7391C54.7142 95.1029 54.0112 94.9138 54.1892 94.3195C54.3685 93.7259 53.8217 93.4252 52.9762 93.6517C52.1308 93.8782 51.3886 93.8783 51.3278 93.6514C51.267 93.4245 50.7126 92.5433 50.0949 91.6938C49.3639 90.6864 49.4126 90.28 50.2348 90.5271C50.9559 90.7441 51.5397 89.8687 51.5964 88.4864C51.8128 83.1619 56.4523 82.5225 57.8202 87.6276ZM117.33 71.6502C118.129 74.6333 118.099 76.202 117.238 76.4328C116.371 76.6651 115.715 75.5584 115.212 73.0107C114.498 69.4011 114.466 69.3769 114.439 72.4249C114.412 75.4656 114.376 75.4964 113.62 73.1202C112.856 70.7197 113.726 67.8581 115.351 67.4224C115.786 67.3061 116.676 69.2086 117.33 71.6502ZM54.9896 88.0572C56.1784 90.6748 56.3535 90.7759 56.1353 88.7187C55.9937 87.3811 55.3616 85.9888 54.7312 85.6248C54.037 85.224 54.1396 86.183 54.9896 88.0572ZM109.535 73.2103C110.044 75.1092 110.455 75.8321 110.448 74.8158C110.442 73.7992 110.026 72.2465 109.523 71.3631C109.021 70.4795 109.026 71.3113 109.535 73.2103ZM135.439 67.3266C135.798 69.2657 136.167 71.3819 136.259 72.0296C136.508 73.7764 132.065 73.108 131.158 71.2617C130.745 70.4209 130.882 69.6048 131.465 69.4486C132.048 69.2927 132.65 69.6355 132.804 70.2097C132.958 70.7838 133.494 70.8189 133.995 70.287C134.631 69.6124 134.431 69.1668 133.336 68.8151C132.034 68.3966 131.97 68.0647 132.964 66.8626C133.909 65.7212 133.729 65.6732 132.11 66.6346C130.981 67.3052 129.951 67.4533 129.82 66.965C129.411 65.4389 130.523 64.3131 132.697 64.0521C134.412 63.8461 134.904 64.4334 135.439 67.3266ZM142.184 65.0043C143.625 68.6319 143.169 72.2369 141.544 70.0649C140.786 69.051 140.569 69.1092 140.154 70.4373C139.764 71.6848 139.587 71.7437 139.301 70.7229C139.103 70.0148 138.649 69.7442 138.293 70.1228C137.938 70.5004 137.427 69.986 137.157 68.9808C136.888 67.9755 136.995 67.2511 137.398 67.3717C137.799 67.4925 138.42 66.3397 138.777 64.8102C139.67 60.9942 140.613 61.0479 142.184 65.0043ZM148.237 60.7254C148.382 61.268 147.729 61.9338 146.783 62.2041C145.146 62.6733 145.159 62.7227 147.06 63.2399C148.159 63.5388 149.348 64.8707 149.704 66.2004C150.213 68.1014 149.841 68.7543 147.957 69.2589C145.356 69.9559 144.171 68.4748 143.605 63.8168C143.342 61.6426 143.801 60.8568 145.618 60.3699C146.913 60.0228 148.092 60.1829 148.237 60.7254ZM154.42 60.1259C154.566 60.6685 153.916 61.3491 152.975 61.6372C151.665 62.04 151.84 62.232 153.724 62.4599C156.559 62.8032 157.439 64.8183 155.777 67.1635C153.536 70.3281 149.734 66.6872 150.24 61.8613C150.436 59.9913 153.989 58.517 154.42 60.1259ZM38.3093 93.9678C38.0295 96.6289 38.3161 96.8937 39.565 95.1306C40.8398 93.3299 40.7351 91.6451 39.3708 92.0107C38.8864 92.1405 38.4088 93.0213 38.3093 93.9678ZM93.2933 78.6195C93.7741 79.0722 93.6967 79.5687 93.1226 79.7226C92.5485 79.8764 91.9589 79.5586 91.8136 79.016C91.6682 78.4734 91.7446 77.9772 91.9843 77.9129C92.224 77.8487 92.8125 78.1668 93.2933 78.6195ZM71.5936 86.1076C71.9489 87.2442 72.2454 87.4154 72.3494 86.5448C72.4436 85.7562 72.18 84.9144 71.7647 84.6746C71.3495 84.4348 71.2726 85.0792 71.5936 86.1076ZM65.2137 88.258C65.0237 88.8905 65.339 89.2818 65.9131 89.1279C66.4872 88.9741 66.8389 88.4041 66.6935 87.8615C66.5481 87.319 66.2338 86.9274 65.9941 86.9916C65.7544 87.0558 65.4038 87.6256 65.2137 88.258ZM146.374 67.0398C146.905 67.7699 147.514 68.3205 147.727 68.2634C147.94 68.2063 147.936 67.4936 147.718 66.6798C147.5 65.8659 146.891 65.3153 146.365 65.4562C145.841 65.5968 145.844 66.3095 146.374 67.0398ZM28.0428 102.191C28.6975 103.94 28.7488 105.43 28.1598 105.588C27.5837 105.742 26.8804 105.008 26.5981 103.954C26.3158 102.9 25.5677 101.884 24.9352 101.694C23.0299 101.122 23.1207 99.3571 25.0632 99.2119C26.2582 99.1222 27.2752 100.14 28.0428 102.191ZM152.782 65.8514C152.928 66.3939 153.491 66.7189 154.033 66.5735C154.576 66.4282 154.901 65.8653 154.755 65.3227C154.61 64.7802 154.047 64.4552 153.505 64.6006C152.962 64.7459 152.637 65.3088 152.782 65.8514ZM24.8709 106.733C24.7795 107.485 24.4067 106.99 24.0433 105.634C23.6798 104.277 23.7552 103.663 24.21 104.267C24.6662 104.872 24.9635 105.982 24.8709 106.733ZM23.4317 114.96C24.2109 117.174 24.4517 118.865 23.9654 118.72C23.4801 118.574 22.516 116.136 21.8245 113.303C20.4747 107.772 21.14 108.459 23.4317 114.96ZM118.428 85.6413C118.706 84.7191 119.285 84.5849 120.527 85.1561C121.828 85.7538 122.06 86.344 121.486 87.5943C120.982 88.6893 121.077 89.1493 121.768 88.964C122.341 88.8107 122.851 87.7656 122.902 86.6407C122.954 85.5166 123.57 83.8048 124.273 82.8373C125.178 81.5903 125.429 81.4954 125.139 82.5101C124.863 83.47 125.397 83.7625 126.759 83.3974C129.007 82.7953 129.953 84.595 128.611 86.919C128.095 87.8134 128.156 88.3098 128.762 88.1475C129.321 87.9976 130.075 86.606 130.438 85.0551C131.322 81.2709 132.564 81.1507 133.529 84.7553C134.204 87.2728 133.946 87.8158 131.798 88.3912C130.41 88.7631 129.602 89.3762 130.002 89.7532C130.402 90.1312 130.104 90.6077 129.337 90.8131C128.571 91.0185 128.061 90.7989 128.203 90.3263C128.344 89.8527 127.853 89.4282 127.11 89.381C126.075 89.3157 125.991 88.7758 126.749 87.0703C127.293 85.846 127.304 85.2921 126.773 85.8403C126.243 86.3883 125.435 86.3395 124.977 85.7316C124.52 85.1234 124.335 85.5274 124.565 86.6286C125.018 88.7889 123.321 94.009 122.799 92.0617C122.625 91.4106 121.148 91.2449 119.485 91.6906C116.594 92.465 116.455 92.3458 115.643 88.3996C114.931 84.9354 115.052 84.5065 116.424 85.6106C117.52 86.4937 118.17 86.5036 118.428 85.6413ZM118.486 87.6876C117.823 88.4066 117.606 89.1826 118.004 89.4123C118.403 89.6417 119.108 89.0023 119.573 87.9917C120.537 85.8957 120.221 85.8071 118.486 87.6876ZM28.8388 120.208C28.9842 120.751 29.5737 121.069 30.1479 120.915C30.722 120.761 30.7994 120.265 30.3186 119.812C29.8378 119.359 29.2493 119.041 29.0095 119.105C28.7698 119.169 28.6934 119.666 28.8388 120.208ZM45.6374 115.82C45.7984 116.421 45.2739 116.843 44.4713 116.76C43.6695 116.675 42.4931 117.17 41.8581 117.859C40.9489 118.845 41.1065 119.007 42.6032 118.619C43.648 118.347 45.5991 118.664 46.9388 119.323C48.2794 119.982 48.9558 120.104 48.4426 119.593C47.7868 118.941 50.1372 117.95 56.3549 116.26C63.8983 114.21 65.273 114.092 65.6977 115.464C66.045 116.583 66.285 116.33 66.4915 114.631C66.7453 112.532 67.4859 112.02 71.7872 110.971C76.146 109.908 76.875 110.016 77.4628 111.812C78.0058 113.471 78.1348 113.51 78.1254 112.012C78.1188 110.989 78.5158 110.272 79.0091 110.42C79.5026 110.569 79.4367 109.72 78.8631 108.534C78.1332 107.025 78.284 106.254 79.3671 105.964C80.5588 105.645 80.7422 105.927 80.1638 107.185C79.5711 108.473 79.7203 108.596 80.8647 107.765C81.6983 107.159 82.4482 107.199 82.6247 107.858C82.8338 108.638 83.466 108.37 84.5992 107.019C85.568 105.864 87.6245 104.866 89.5113 104.635C94.6415 104.008 95.2755 104.232 95.2902 106.666C95.3013 108.479 94.7073 109.009 92.3532 109.283C90.6595 109.481 89.0885 110.31 88.6657 111.23C87.8147 113.081 84.7247 114.156 83.52 113.022C82.5131 112.074 79.1932 113.594 77.7159 115.68C76.829 116.932 76.6632 116.865 76.8245 115.325C77.0029 113.631 76.8352 113.632 75.2336 115.338C73.7076 116.963 73.247 117.063 72.1069 116.016C71.1845 115.17 70.8691 115.18 71.0903 116.049C71.3035 116.885 70.2877 117.481 68.0757 117.82C66.2405 118.102 63.9619 118.918 63.0111 119.635C61.8172 120.534 62.4085 120.531 64.9216 119.623C66.9221 118.901 68.8583 118.591 69.2246 118.936C70.5295 120.163 62.0884 122.501 59.608 121.598C57.936 120.989 57.5216 121.041 58.2884 121.763C59.1186 122.545 58.8204 122.79 57.1326 122.714C55.6361 122.645 54.9718 123.035 55.1907 123.852C55.376 124.543 54.6549 124.417 53.562 123.566C51.7867 122.185 51.6419 122.205 52.0317 123.774C52.2685 124.729 51.9922 125.635 51.4181 125.789C50.8439 125.943 50.515 125.595 50.6889 125.017C51.2055 123.299 48.3813 123.594 47.1438 125.388C45.6921 127.491 42.3102 129.052 41.9682 127.775C41.8252 127.242 42.8383 126.583 44.2195 126.312C45.6502 126.033 45.9321 125.81 44.874 125.795C42.7294 125.766 41.1796 121.525 42.8929 120.375C43.5094 119.961 43.0582 120.057 41.8921 120.586C39.3706 121.731 38.9952 120.989 40.5555 117.945C41.8157 115.487 45.1722 114.084 45.6374 115.82ZM28.1566 125.554C28.4304 126.576 29.5044 127.479 30.544 127.559C31.5839 127.639 33.0581 127.814 33.8207 127.949C34.7706 128.117 34.9507 127.234 34.3927 125.152C33.6634 122.43 33.267 122.194 30.6183 122.903C28.378 123.504 27.7796 124.147 28.1566 125.554ZM32.1335 124.612C32.2788 125.155 31.9539 125.718 31.4113 125.863C30.8687 126.008 30.3059 125.683 30.1605 125.141C30.0151 124.598 30.3401 124.035 30.8826 123.89C31.4252 123.745 31.9881 124.07 32.1335 124.612ZM66.2367 126.686C65.997 127.101 65.1552 127.365 64.3675 127.27C63.496 127.167 63.6671 126.87 64.8037 126.515C65.8321 126.194 66.4765 126.271 66.2367 126.686ZM93.1363 120.536C92.8966 120.951 92.0547 121.214 91.2671 121.12C90.3955 121.016 90.5667 120.72 91.7033 120.364C92.7317 120.043 93.3761 120.12 93.1363 120.536ZM99.0984 119.028C98.2151 119.531 96.6623 119.947 95.6457 119.953C94.6294 119.96 95.3523 119.548 97.2513 119.04C99.1503 118.531 99.9821 118.526 99.0984 119.028ZM123.718 112.341C123.478 112.757 122.636 113.02 121.848 112.926C120.977 112.822 121.148 112.526 122.284 112.17C123.313 111.849 123.957 111.926 123.718 112.341ZM133.067 155.869C133.005 156.676 132.56 162.137 132.079 168.005C131.598 173.873 131.493 179.75 131.845 181.064C132.823 184.713 139.573 197.815 140.521 197.902C140.98 197.945 141.444 199.184 141.552 200.656L141.748 203.334L149.878 200.576C154.904 198.872 156.771 198.473 154.768 199.532L151.527 201.246L154.897 200.482C158.22 199.729 158.271 199.771 158.646 203.582C158.855 205.707 159.485 209.177 160.046 211.295L161.066 215.144L152.216 216.856L143.366 218.567L143.01 225.331C142.778 229.73 143.044 232.029 143.77 231.902C144.384 231.795 148.955 230.912 153.929 229.941C166.648 227.456 169.769 227.2 169.325 228.679C169.069 229.531 164.75 230.893 155.892 232.916C143.237 235.805 143.111 235.856 151.776 234.561C159.118 233.465 160.729 233.524 160.789 234.892C160.83 235.808 160.195 236.582 159.378 236.611C155.726 236.742 143.922 239.49 145.114 239.931C145.845 240.201 146.759 241.615 147.146 243.075C148.449 247.984 153.752 258.023 154.885 257.726C155.503 257.565 169.34 254.805 185.635 251.595C225.567 243.727 227.807 243.1 229.892 239.214C231.423 236.359 231.273 234.76 227.836 217.297C225.796 206.936 223.001 192.338 221.623 184.857C220.246 177.375 217.775 165.107 216.133 157.595L213.146 143.936L209.3 141.716C206.772 140.256 204.473 139.758 202.59 140.263C201.014 140.685 189.822 143.002 177.719 145.411C133.372 154.238 133.191 154.281 133.067 155.869ZM80.7345 171.831C69.3404 175.448 69.0098 175.615 75.6104 174.411C79.4914 173.703 75.4689 174.833 66.6719 176.924C49.6167 180.978 44.8981 182.774 45.491 184.987C45.6948 185.747 46.1136 186.273 46.421 186.153C48.635 185.297 50.5547 185.402 50.2659 186.364C50.0651 187.032 51.1429 187.187 52.8327 186.734C54.4348 186.305 55.8113 185.326 55.8911 184.558C55.9768 183.749 57.8357 182.625 60.3105 181.886C63.2397 181.011 64.027 181.014 62.8133 181.894C61.2949 182.995 61.5557 183.155 64.6407 183.02C66.6201 182.934 69.1159 183.37 70.1872 183.99C71.9511 185.01 71.9051 185.118 69.7 185.132C67.6832 185.145 67.5291 185.336 68.804 186.239C69.9613 187.058 73.3208 186.57 82.3465 184.271L94.35 181.212L78.2762 186.332C69.4353 189.147 58.1891 192.763 53.2854 194.366L44.3677 197.281L43.4398 192.828C42.903 190.248 42.3173 188.998 42.0488 189.854C41.4886 191.642 45.9108 207.925 50.0197 219.207C51.6609 223.71 52.804 226.378 52.5606 225.135C52.1367 222.964 52.4848 222.776 61.2425 220.424C66.2612 219.077 75.4028 216.351 81.5586 214.366C89.4418 211.825 92.3971 211.178 91.5538 212.177C90.896 212.959 89.2817 213.614 87.9658 213.636C86.6507 213.656 85.0923 214.355 84.5024 215.188C83.7682 216.224 83.1414 216.43 82.5136 215.839C82.0099 215.364 81.1532 215.094 80.6106 215.24C80.068 215.385 79.9196 215.782 80.2801 216.121C80.6405 216.46 76.8471 217.736 71.8503 218.955C66.8534 220.175 60.8036 221.947 58.4066 222.894L54.0474 224.615L55.0513 228.767C55.6032 231.052 56.0624 232.087 56.0702 231.067C56.0791 230.046 56.4984 229.102 57.0006 228.967C57.5037 228.832 57.789 228.252 57.6351 227.678C57.4813 227.103 56.9371 227.077 56.425 227.62C55.8735 228.206 55.5294 228.035 55.5796 227.2C55.6806 225.517 57.1156 224.938 71.1536 220.913C85.1791 216.893 85.398 216.857 85.8542 218.56C86.1109 219.518 86.7712 219.642 87.8026 218.926C88.6614 218.331 89.1626 218.24 88.9183 218.725C88.6727 219.21 84.2135 220.916 79.0083 222.518C73.8024 224.122 69.3335 225.832 69.0774 226.32C68.821 226.808 74.9723 225.201 82.7473 222.748C90.522 220.295 100.416 217.266 104.733 216.016C112.026 213.903 112.22 213.787 107.466 214.378C104.653 214.729 109.38 213.368 117.972 211.357L133.592 207.698L131.545 204.431C130.42 202.632 129.221 201.458 128.881 201.818C128.541 202.179 128.258 201.597 128.251 200.526C128.245 199.454 126.446 195.694 124.253 192.171C120.958 186.877 120.273 185.06 120.303 181.699C120.369 174.541 119.611 173.166 116.341 174.501C114.722 175.162 113.36 175.211 113.2 174.615C113.043 174.029 114.04 173.478 115.442 173.375C118.99 173.116 119.569 172.125 119.089 167.139C118.695 163.063 118.472 162.747 115.784 162.473C112.835 162.173 102.291 164.988 80.7345 171.831ZM159.829 150.352C158.671 150.914 156.674 151.449 155.39 151.542C154.105 151.633 155.053 151.173 157.495 150.519C159.936 149.865 160.987 149.789 159.829 150.352ZM61.4866 179.855C60.6096 180.354 58.8362 180.839 57.5459 180.932C56.2555 181.025 56.9728 180.616 59.1401 180.024C61.3075 179.431 62.3636 179.356 61.4866 179.855ZM42.856 186.162C42.6786 186.751 42.9741 187.365 43.5112 187.526C44.0483 187.688 44.3153 187.173 44.1036 186.383C43.658 184.72 43.3074 184.658 42.856 186.162ZM55.163 182.938C55.3084 183.48 54.7614 184.103 53.9476 184.321C53.1337 184.539 52.3489 184.273 52.2035 183.731C52.0581 183.188 52.6051 182.566 53.4189 182.348C54.2328 182.13 55.0176 182.395 55.163 182.938ZM56.2203 186.884C56.3657 187.426 55.5228 188.128 54.3469 188.443C50.9682 189.348 52.7796 189.582 58.2063 188.941C61.6633 188.533 62.8961 188.083 62.2423 187.466C61.7077 186.962 62.0632 186.344 63.0667 186.032C64.6432 185.543 64.5961 185.45 62.6325 185.166C59.5645 184.721 55.9036 185.702 56.2203 186.884ZM44.1495 191.704C43.7869 195.153 45.5485 195.876 49.6144 193.948C51.7393 192.941 53.7001 191.688 53.9733 191.164C54.2454 190.641 53.5034 190.744 52.3233 191.395C50.8409 192.212 50.2215 192.161 50.3188 191.23C50.419 190.282 49.6062 190.251 47.5811 191.126C45.5955 191.983 44.823 191.964 45.0935 191.064C45.3094 190.346 45.2229 189.83 44.9033 189.916C44.5827 190.002 44.2432 190.807 44.1495 191.704ZM137.721 166.946C136.491 167.492 134.97 167.641 134.339 167.277C133.645 166.876 134.527 166.485 136.575 166.284C139.436 166.005 139.611 166.106 137.721 166.946ZM76.636 183.171C76.0318 183.626 74.922 183.924 74.1698 183.831C73.4189 183.74 73.9133 183.367 75.2697 183.004C76.6261 182.64 77.2415 182.715 76.636 183.171ZM87.9878 180.157C87.1044 180.661 85.5517 181.077 84.5351 181.083C83.5187 181.089 84.2416 180.678 86.1406 180.169C88.0396 179.66 88.8714 179.655 87.9878 180.157ZM144.721 164.921C144.126 165.37 142.798 165.744 141.771 165.75C140.744 165.757 141.232 165.39 142.854 164.934C144.476 164.478 145.316 164.472 144.721 164.921ZM112.42 175.649C112.475 175.857 109.506 176.76 105.821 177.657C99.195 179.268 99.1738 179.264 103.893 177.368C108.382 175.566 112.191 174.797 112.42 175.649ZM160.302 161.878C158.338 162.632 154.788 163.586 152.411 163.999C150.035 164.413 151.642 163.796 155.982 162.63C160.321 161.463 162.265 161.125 160.302 161.878ZM60.6658 190.65C61.6824 190.644 63.2352 190.228 64.1185 189.725C65.0022 189.223 64.1704 189.228 62.2714 189.737C60.3724 190.246 59.6495 190.657 60.6658 190.65ZM191.879 155.457C191.284 155.906 189.956 156.28 188.929 156.286C187.902 156.293 188.39 155.926 190.012 155.47C191.634 155.014 192.474 155.008 191.879 155.457ZM141.935 195.045C141.999 195.285 141.681 195.873 141.229 196.354C140.776 196.835 140.279 196.757 140.125 196.183C139.972 195.609 140.289 195.02 140.832 194.874C141.375 194.729 141.871 194.805 141.935 195.045ZM152.13 192.591C150.979 193.15 148.761 193.751 147.201 193.927C145.641 194.102 146.582 193.644 149.293 192.91C152.004 192.176 153.281 192.032 152.13 192.591ZM167.624 189.391C167.384 189.807 166.542 190.07 165.755 189.976C164.883 189.872 165.054 189.575 166.191 189.22C167.219 188.899 167.864 188.976 167.624 189.391ZM115.167 204.645C112.372 205.607 107.71 206.857 104.809 207.42C101.907 207.984 104.194 207.197 109.891 205.671C115.588 204.144 117.962 203.683 115.167 204.645ZM174.794 188.527C174.554 188.943 173.712 189.206 172.924 189.112C172.053 189.008 172.224 188.712 173.361 188.356C174.389 188.035 175.033 188.112 174.794 188.527ZM183.24 186.37C182.089 186.929 179.871 187.53 178.311 187.706C176.751 187.88 177.692 187.423 180.403 186.688C183.114 185.954 184.391 185.811 183.24 186.37ZM98.1118 210.132C97.872 210.547 97.0302 210.811 96.2426 210.716C95.371 210.612 95.5422 210.316 96.6788 209.961C97.7071 209.639 98.3516 209.716 98.1118 210.132ZM215.311 179.847C214.707 180.303 213.597 180.6 212.845 180.508C212.094 180.416 212.589 180.043 213.945 179.68C215.301 179.317 215.917 179.392 215.311 179.847ZM93.3933 217.101C93.2033 217.734 92.6307 218.363 92.1197 218.5C91.6087 218.637 91.0724 218.305 90.9271 217.762C90.7817 217.219 91.3552 216.59 92.2007 216.363C93.0461 216.137 93.5833 216.469 93.3933 217.101ZM100.684 215.786C100.445 216.202 99.6027 216.465 98.815 216.371C97.9435 216.267 98.1147 215.97 99.2512 215.615C100.28 215.294 100.924 215.371 100.684 215.786ZM61.1388 228.916C60.4039 229.728 60.3854 230.148 61.0944 229.969C61.7427 229.804 62.4286 229.152 62.6186 228.519C63.0469 227.091 62.7056 227.183 61.1388 228.916ZM58.1937 231.25C58.7475 232.011 58.84 233.417 58.3998 234.375C57.9596 235.332 58.0097 236.502 58.5117 236.974C59.0136 237.447 58.9021 237.974 58.2638 238.145C57.5634 238.332 57.0302 237.443 56.9174 235.894C56.8149 234.485 56.4133 233.669 56.0265 234.08C55.6388 234.492 56.3031 238.463 57.5018 242.905C59.0083 248.483 59.8551 250.444 60.2422 249.245C60.6485 247.984 60.9011 247.861 61.1634 248.796C61.3616 249.504 61.8946 249.69 62.3473 249.21C63.4849 248.002 61.6826 241.753 60.0547 241.265C59.2624 241.027 59.1096 241.226 59.6762 241.759C60.1981 242.25 60.248 243.052 59.788 243.541C59.3277 244.029 58.7355 243.622 58.4712 242.636C58.2066 241.648 58.7296 240.049 59.6332 239.08C61.3928 237.195 60.4561 230.846 58.3242 230.206C57.6711 230.01 57.6154 230.453 58.1937 231.25ZM210.777 191.851C214.803 191.187 217.575 191.233 218.061 191.972C218.682 192.915 217.054 193.572 210.265 195.118C205.544 196.193 201.773 197.406 201.884 197.811C202.051 198.426 205.268 197.958 207.624 196.977C207.957 196.837 208.805 197.204 209.509 197.793C210.509 198.628 210.824 198.564 210.957 197.495C211.202 195.523 216.738 194.286 217.936 195.935C219.221 197.705 218.628 198.634 215.803 199.274C214.546 199.558 209.145 200.799 203.799 202.031C198.059 203.353 193.47 203.918 192.591 203.41C190.531 202.221 191.759 200.505 195.83 198.885C198.135 197.968 197.236 197.981 192.933 198.925C189.501 199.679 186.218 200.304 185.64 200.314C185.061 200.324 182.797 200.752 180.608 201.265C177.662 201.956 176.518 201.786 176.203 200.609C175.822 199.187 177.284 198.696 190.027 195.971C197.865 194.293 207.202 192.44 210.777 191.851ZM63.4711 244.151C64.3375 246.891 65.0029 247.507 66.8534 247.283C71.702 246.695 69.9312 251.935 64.8192 253.305L61.5638 254.177L64.4567 264.24L67.3505 274.302L65.6591 265.768C64.7292 261.074 64.4582 257.676 65.0574 258.215C66.05 259.11 68.4865 269.789 69.2754 276.699C69.4863 278.548 69.906 279.199 70.4887 278.58C71.0443 277.99 71.3128 278.277 71.2004 279.341C70.9118 282.096 75.343 283.659 80.017 282.45C82.308 281.857 90.1251 279.582 97.389 277.392L110.596 273.411L101.077 275.372C95.8411 276.449 104.513 273.848 120.348 269.592C136.182 265.334 149.303 261.566 149.505 261.216C150.085 260.211 145.617 252.773 144.895 253.54C144.537 253.919 144.239 253.205 144.232 251.952C144.224 250.556 143.896 250.017 143.384 250.559C142.872 251.103 142.478 250.449 142.362 248.865L142.174 246.286L132.587 249.454C127.314 251.197 120.935 253.349 118.41 254.236C113.707 255.889 112.223 255.114 114.046 251.957C114.632 250.941 114.562 250.55 113.828 250.747C113.231 250.907 112.326 249.484 111.817 247.585L110.892 244.132L119.73 241.764C124.591 240.461 128.24 239.086 127.838 238.708C127.437 238.331 129.208 237.786 131.774 237.501C134.856 237.156 136.456 236.579 136.489 235.798C136.546 234.446 135.902 223.825 135.722 223.153C135.656 222.909 133.515 223.351 130.963 224.137L126.323 225.564L130.617 224.818C132.979 224.408 135.001 224.41 135.111 224.821C135.221 225.233 132.442 225.955 128.933 226.426C125.425 226.898 113.098 230.169 101.54 233.696C87.3643 238.022 82.8169 239.668 87.5641 238.752L94.6017 237.395L89.41 239.722C85.1585 241.628 84.6973 242.049 86.8618 242.05C89.4962 242.052 89.4983 242.056 87.4446 243.239C83.2915 245.63 85.9302 246.591 92.1313 244.946C96.4787 243.792 97.9396 243.708 97.0775 244.662C96.1557 245.68 96.6865 245.795 99.2289 245.127C101.085 244.638 102.385 244.615 102.12 245.075C101.855 245.535 102.494 246.466 103.542 247.142C104.591 247.819 106.064 249.619 106.818 251.142C107.906 253.345 107.785 254.608 106.224 257.311C105.144 259.181 103.804 260.834 103.245 260.983C102.686 261.133 102.591 261.464 103.032 261.72C103.475 261.975 104.464 261.376 105.231 260.389C106.346 258.954 106.463 258.919 105.819 260.211C105.275 261.301 101.739 262.814 94.9745 264.853C86.4456 267.424 84.6865 267.677 83.2709 266.537C82.3542 265.8 81.0127 265.355 80.2915 265.548C79.5694 265.741 78.8744 265.333 78.7468 264.64C78.6194 263.948 77.9131 260.87 77.1782 257.8C75.9667 252.742 76.0392 252.219 77.953 252.207C79.114 252.2 79.9563 251.792 79.8244 251.3C79.6928 250.809 83.0048 249.409 87.1859 248.192L94.7867 245.977L88.7228 246.987C84.0374 247.767 82.4788 247.624 81.8679 246.358C81.434 245.457 81.5542 244.592 82.1373 244.436C83.7837 243.994 82.6651 241.426 80.7383 241.223C79.7917 241.123 75.7559 241.916 71.7685 242.985C65.0465 244.786 64.4419 244.774 63.4564 242.833C62.8717 241.681 62.8785 242.274 63.4711 244.151ZM98.0262 236.364C98.0833 236.577 97.5123 237.201 96.7566 237.75C95.9687 238.322 95.5287 238.262 95.7244 237.611C96.0521 236.518 97.8121 235.565 98.0262 236.364ZM66.2207 249.685C66.0433 250.274 66.4249 250.913 67.0678 251.106C67.7105 251.299 68.0505 250.765 67.824 249.919C67.3596 248.186 66.6995 248.09 66.2207 249.685ZM73.8595 248.768C74.1503 249.853 73.9443 250.86 73.4017 251.006C72.8591 251.151 72.1773 250.382 71.8865 249.297C71.5958 248.212 71.8018 247.205 72.3444 247.06C72.8869 246.914 73.5688 247.683 73.8595 248.768ZM78.6693 254.881C78.9524 255.937 86.2207 264.998 87.6869 266.122C87.9211 266.301 88.3212 266.086 88.5772 265.644C88.8318 265.202 88.3189 264.329 87.4369 263.705C86.5559 263.081 85.964 262.138 86.1219 261.611C86.28 261.084 84.5909 259.066 82.3676 257.125C80.1442 255.184 78.48 254.174 78.6693 254.881ZM133.716 241.09C133.543 241.663 134.229 241.662 135.239 241.087C137.381 239.867 137.493 239.119 135.451 239.666C134.668 239.876 133.888 240.516 133.716 241.09ZM119.376 245.753C120.163 245.847 121.005 245.584 121.245 245.168C121.485 244.753 120.84 244.676 119.812 244.997C118.675 245.353 118.504 245.649 119.376 245.753ZM123.254 244.691C124.006 244.784 125.116 244.486 125.72 244.031C126.326 243.576 125.71 243.5 124.354 243.864C122.998 244.227 122.503 244.6 123.254 244.691ZM136.058 244.138C136.114 244.346 137.11 244.51 138.272 244.504C139.434 244.497 140.028 244.154 139.592 243.745C138.831 243.028 135.849 243.359 136.058 244.138ZM119.879 249.854C120.896 249.848 122.449 249.432 123.332 248.928C124.216 248.426 123.384 248.431 121.485 248.94C119.586 249.449 118.863 249.86 119.879 249.854ZM126.284 248.109C127.037 248.201 128.146 247.904 128.751 247.448C129.356 246.993 128.741 246.918 127.384 247.281C126.028 247.645 125.533 248.017 126.284 248.109ZM71.0302 270.937C71.1217 272.221 70.6616 271.274 70.0074 268.832C69.3531 266.391 69.2777 265.34 69.8408 266.498C70.4028 267.656 70.9378 269.653 71.0302 270.937ZM73.8782 280.406C74.0127 280.908 74.9538 281.314 75.9704 281.308C77.5285 281.299 77.5717 281.381 76.2422 281.841C75.3762 282.141 73.937 281.868 73.0431 281.235C71.9209 280.44 71.7608 279.993 72.5263 279.788C73.135 279.625 73.7434 279.902 73.8782 280.406ZM143.566 261.391C143.327 261.806 142.485 262.07 141.697 261.976C140.825 261.872 140.997 261.575 142.133 261.22C143.162 260.899 143.806 260.976 143.566 261.391Z" fill="#199402"/>
</svg>
