<svg width="24" height="24" viewBox="0 0 24 24" fill="none" xmlns="http://www.w3.org/2000/svg">
<path fill-rule="evenodd" clip-rule="evenodd" d="M9.85419 0.146413C9.4094 0.220755 8.52581 0.469093 7.89089 0.698129C3.97095 2.11204 1.17707 5.29291 0.197636 9.45668C-0.154941 10.9552 -0.0162218 14.2349 0.458468 15.6281C1.79665 19.5554 4.59765 22.3301 8.44847 23.5433C10.1343 24.0744 12.9268 24.1535 14.7335 23.7214C19.8913 22.4878 23.5231 18.2154 23.9615 12.8653C24.4476 6.93365 20.2765 1.45072 14.3461 0.225819C13.0484 -0.0422858 11.1799 -0.0753463 9.85419 0.146413ZM15.3292 6.05657V7.39393L14.2615 7.44059L13.1938 7.48741L13.1466 8.476L13.0997 9.46458H14.2143C15.4755 9.46458 15.4022 9.35181 15.2276 11.0231L15.1259 11.9954H14.1204H13.1147V15.6334V19.2713H11.612H10.1093V15.6334V11.9954H9.31844H8.52756V10.73V9.46458H9.30358H10.0797L10.134 7.89392C10.1971 6.07034 10.4045 5.65355 11.5361 5.07526C12.1182 4.7779 12.4872 4.71937 13.7809 4.71937H15.3292V6.05657Z" fill="#199402"/>
</svg>
