<svg width="24" height="25" viewBox="0 0 24 25" fill="none" xmlns="http://www.w3.org/2000/svg">
<path d="M5.5 21C4.94772 21 4.5 20.5523 4.5 20V5.00005C4.5 4.44776 4.94772 4.00002 5.5 4.00002H11.88C12.2602 3.9974 12.6089 4.21054 12.78 4.55005L13.5 6.00005H18.5C19.0523 6.00005 19.5 6.44776 19.5 7.00005V15C19.5 15.5523 19.0523 16 18.5 16H13.11C12.7334 15.9989 12.3895 15.7863 12.22 15.45L11.5 14H6.5V20C6.5 20.5523 6.05228 21 5.5 21ZM6.5 6.00005V12H12.5L13.5 14H17.5V8.00005H12.5L11.5 6.00005H6.5Z" fill="#FFC601"/>
</svg>
