<svg width="24" height="24" viewBox="0 0 24 24" fill="none" xmlns="http://www.w3.org/2000/svg">
<path d="M12 23.7848C18.5085 23.7848 23.7847 18.5086 23.7847 12.0001C23.7847 5.49154 18.5085 0.215332 12 0.215332C5.49142 0.215332 0.215206 5.49154 0.215206 12.0001C0.215206 18.5086 5.49142 23.7848 12 23.7848Z" fill="#199402"/>
<path d="M14.6941 4.93896H12.5544C10.4519 4.93896 8.66883 6.53937 8.66883 9.64648C8.66883 11.5105 9.53227 12.8848 11.0712 13.5627L8.19952 18.7597C8.10553 18.9294 8.19952 19.0609 8.34961 19.0609H9.68241C9.79491 19.0609 9.87038 19.0234 9.90788 18.9294L12.5169 13.8264H13.4554V18.9294C13.4554 18.9855 13.5115 19.0609 13.5866 19.0609H14.7506C14.8631 19.0609 14.9007 19.0045 14.9007 18.9107V5.12726C14.9007 4.99545 14.8256 4.93896 14.6941 4.93896ZM13.4553 12.6215H12.667C11.4282 12.6215 10.227 11.7177 10.227 9.45823C10.227 7.10417 11.3531 6.14393 12.498 6.14393H13.4554V12.6215H13.4553Z" fill="white"/>
</svg>
