<svg width="24" height="24" viewBox="0 0 24 24" fill="none" xmlns="http://www.w3.org/2000/svg">
<path fill-rule="evenodd" clip-rule="evenodd" d="M10.8769 0.0281642C8.54162 0.25408 6.22684 1.20354 4.41175 2.68002C3.87786 3.11433 3.03253 3.96629 2.60672 4.49933C1.53005 5.84703 0.647758 7.66999 0.281838 9.30274C0.0520461 10.3283 0 10.8269 0 12.0034C0 13.1799 0.0520461 13.6785 0.281838 14.7041C0.655743 16.3724 1.56105 18.2214 2.67352 19.5887C3.10787 20.1226 3.95992 20.9678 4.49301 21.3936C5.84086 22.4701 7.66402 23.3523 9.29694 23.7182C10.3226 23.948 10.8213 24 11.9979 24C13.1745 24 13.6731 23.948 14.6988 23.7182C15.9266 23.4431 17.5319 22.7572 18.5868 22.0569C20.4164 20.8424 21.8216 19.2444 22.781 17.2873C23.3687 16.0884 23.7025 15.0147 23.9127 13.6473C24.0291 12.8906 24.0291 11.1162 23.9127 10.3595C23.7025 8.99205 23.3687 7.91836 22.781 6.7195C22.1539 5.44019 21.4548 4.46692 20.4456 3.46805C19.4548 2.48736 18.5471 1.84291 17.2824 1.22209C16.0976 0.640532 15.0009 0.297572 13.6889 0.0983813C13.0989 0.00881343 11.4917 -0.0313442 10.8769 0.0281642ZM13.0783 3.7787C15.2195 4.35828 16.5765 6.55018 16.1346 8.71564C16.0138 9.30753 15.6532 10.0809 15.2862 10.5353C14.5632 11.4303 13.3979 12.0195 12.2238 12.0837C10.2471 12.1917 8.51841 10.9587 7.92998 9.02093C7.8149 8.6419 7.80156 8.52542 7.80085 7.8937C7.79991 7.05762 7.88179 6.68644 8.21783 6.0039C8.81373 4.79344 9.96622 3.93477 11.3243 3.68936C11.7013 3.62126 12.6809 3.67114 13.0783 3.7787ZM11.4936 5.87605C10.3666 6.17951 9.71162 7.28988 10.0021 8.40471C10.285 9.49094 11.4311 10.1527 12.5324 9.86584C12.8933 9.77186 13.1912 9.5938 13.4775 9.30091C14.0832 8.6814 14.2231 7.77999 13.8405 6.96247C13.4406 6.10788 12.4079 5.62985 11.4936 5.87605ZM8.2913 12.1133C8.40521 12.148 8.64576 12.2668 8.8259 12.3775C10.0032 13.1009 10.9304 13.3519 12.2581 13.3068C13.3326 13.2702 14.1369 13.0246 15.0425 12.4565C15.7389 12.0196 16.0641 11.9663 16.4943 12.2184C16.8306 12.4154 17.0604 12.9123 17.0004 13.3124C16.9723 13.4993 16.9225 13.5719 16.6086 13.884C15.8653 14.6229 14.7781 15.1195 13.4541 15.325C13.1828 15.3671 12.9413 15.4184 12.9174 15.4391C12.8929 15.4603 13.5947 16.2019 14.5208 17.1335C15.8976 18.5185 16.1763 18.8211 16.2198 18.9781C16.2947 19.2483 16.2834 19.419 16.1747 19.6592C15.9399 20.1777 15.4129 20.4513 14.9082 20.3167C14.7236 20.2675 14.5457 20.1084 13.4052 18.9737C12.4524 18.0255 12.0828 17.6865 12.002 17.6865C11.9207 17.6865 11.5743 18.0087 10.6651 18.9299C9.19243 20.4219 9.08862 20.4871 8.50244 20.2874C7.93346 20.0935 7.61667 19.4133 7.84308 18.8715C7.89151 18.7555 8.45763 18.1542 9.53947 17.0696C10.8228 15.783 11.1448 15.4365 11.0755 15.4163C11.0274 15.4023 10.8189 15.3665 10.6122 15.3368C9.51011 15.1783 8.63054 14.8431 7.84369 14.2817C6.93406 13.6326 6.76505 13.1486 7.21632 12.4849C7.34691 12.2928 7.52094 12.17 7.77004 12.0942C7.94835 12.04 8.06404 12.0443 8.2913 12.1133Z" fill="#199402"/>
</svg>
