<svg width="24" height="24" viewBox="0 0 24 24" fill="none" xmlns="http://www.w3.org/2000/svg">
<path fill-rule="evenodd" clip-rule="evenodd" d="M9.85542 0.0968439C7.8948 0.450626 5.65072 1.53114 3.98796 2.92188C2.58176 4.09809 1.13898 6.31014 0.459858 8.33096C-0.0298221 9.78823 -0.155323 13.0491 0.21439 14.7125C1.12601 18.8144 4.32523 22.241 8.45712 23.5411C10.0412 24.0393 12.8183 24.1506 14.4887 23.7824C20.559 22.4441 24.6601 16.7183 23.9121 10.6251C23.3015 5.65184 19.8535 1.63365 15.0811 0.333856C13.9602 0.0285545 10.982 -0.106585 9.85542 0.0968439ZM16.1331 5.63411C17.084 5.98725 17.734 6.59041 18.1675 7.52184C18.5726 8.39227 18.581 8.47894 18.5835 11.8165C18.5867 15.8152 18.4664 16.4352 17.4899 17.4525C16.4643 18.5209 15.7395 18.6618 11.5834 18.6006C8.34316 18.5529 8.09611 18.5281 7.38454 18.1773C6.55221 17.767 5.92215 17.0469 5.59675 16.1341C5.27262 15.225 5.28687 8.76761 5.61511 7.83649C6.03674 6.63984 7.087 5.76006 8.42958 5.47836C9.44281 5.2659 15.4698 5.38774 16.1331 5.63411ZM8.55572 6.74012C7.82547 6.92201 7.24448 7.37703 6.91433 8.02534C6.6763 8.4924 6.63752 9.04455 6.63736 11.9645C6.63704 15.0248 6.66806 15.4245 6.95025 16.008C7.53505 17.2172 7.79018 17.2825 11.939 17.2825C16.0815 17.2825 16.361 17.2123 16.9881 16.015C17.2952 15.4286 17.3201 15.127 17.3201 11.9749C17.3201 8.66399 17.3093 8.54992 16.938 7.90097C16.2959 6.77879 15.9106 6.67501 12.2555 6.63842C10.5146 6.62099 8.84962 6.66677 8.55572 6.74012ZM16.1799 8.02914C16.2668 8.16824 16.2907 8.47007 16.2331 8.70011C16.1151 9.17082 15.456 9.43049 15.0403 9.17003C14.7196 8.96914 14.6254 8.22624 14.8817 7.91713C15.1298 7.61769 15.968 7.69009 16.1799 8.02914ZM13.3682 8.88295C14.0109 9.1442 14.8215 9.97725 15.1219 10.6851C15.516 11.6137 15.3577 13.0795 14.7736 13.9124C13.3477 15.9453 10.2968 15.8724 9.06961 13.776C8.18569 12.2661 8.44842 10.5964 9.75033 9.44918C10.7952 8.52853 12.0235 8.33635 13.3682 8.88295ZM11.5454 9.88678C10.9994 9.97059 10.3172 10.4872 10.0374 11.0289C9.13134 12.7831 11.0826 14.8027 12.8652 13.9558C14.1595 13.3411 14.4901 11.5245 13.49 10.5234C13.0024 10.0354 12.2283 9.7819 11.5454 9.88678Z" fill="#199402"/>
</svg>
