<svg width="24" height="19" viewBox="0 0 24 19" fill="none" xmlns="http://www.w3.org/2000/svg">
<path d="M21 0.5H3C1.34325 0.5 0 1.84325 0 3.5V15.5C0 17.1567 1.34325 18.5 3 18.5H21C22.6567 18.5 24 17.1567 24 15.5V3.5C24 1.84325 22.6567 0.5 21 0.5ZM16.062 8.50536L22.4121 3.06345C22.4561 3.20408 22.5 3.3447 22.5 3.5V15.5C22.5 15.604 22.4604 15.6963 22.44 15.7944L16.062 8.50536ZM21 2C21.0996 2 21.1875 2.03811 21.2812 2.05714L12 10.0127L2.71875 2.05714C2.8125 2.03811 2.90039 2 3 2H21ZM1.55934 15.793C1.53881 15.6948 1.5 15.604 1.5 15.5V3.5C1.5 3.3447 1.54467 3.20408 1.58864 3.06345L7.93655 8.50391L1.55934 15.793ZM3 17C2.84841 17 2.71069 16.956 2.57227 16.9136L9.07617 9.48092L11.5122 11.5683C11.6521 11.69 11.8264 11.75 12 11.75C12.1736 11.75 12.3479 11.69 12.4878 11.5684L14.9238 9.48097L21.4277 16.9136C21.2901 16.956 21.1523 17 21 17H3Z" fill="#199402"/>
</svg>
