<svg width="17" height="52" viewBox="0 0 17 52" fill="none" xmlns="http://www.w3.org/2000/svg">
<path fill-rule="evenodd" clip-rule="evenodd" d="M5.59211 0.898404C4.57658 1.47169 4.02632 2.84117 4.02632 4.79347C4.02632 8.55931 7.10689 10.3954 10.7368 8.79261C12.5004 8.01377 12.9737 7.16468 12.9737 4.78133C12.9737 0.624336 9.40368 -1.25338 5.59211 0.898404ZM1.73668 13.3347C0.23621 14.398 0 15.6461 0 22.516C0 29.7146 0.190579 30.6166 2.01316 32.0494C3.83126 33.4778 4.02632 34.3885 4.02632 41.4527C4.02632 49.719 4.99353 52 8.5 52C12.0065 52 12.9737 49.719 12.9737 41.4527C12.9737 34.3885 13.1687 33.4778 14.9868 32.0494C16.8094 30.6166 17 29.7146 17 22.516C17 15.6461 16.7638 14.398 15.2633 13.3347C12.9808 11.7172 4.01916 11.7172 1.73668 13.3347Z" fill="#199402"/>
</svg>
