<svg width="22" height="24" viewBox="0 0 22 24" fill="none" xmlns="http://www.w3.org/2000/svg">
<path d="M10.7245 0.939941C10.0702 0.943691 9.41391 0.983066 8.75203 1.06369C7.48641 1.21932 6.23203 1.47807 5.02828 2.03119C3.11391 2.91057 1.75641 4.40307 1.36266 6.57244C1.19578 7.48744 1.06078 8.41557 0.983907 9.34932C0.835782 11.1624 0.927657 12.9812 1.44141 14.7681C1.84641 16.1762 2.59266 17.4418 3.89953 18.2631C4.45266 18.6099 5.18203 18.7787 5.56266 18.9549C5.66953 19.0056 5.69578 19.0356 5.70141 19.0431C5.70703 19.0487 5.72203 19.0618 5.72016 19.1743C5.70703 20.3218 5.72016 22.5418 5.72016 22.5418L5.72203 23.0199H6.57891L6.71766 22.8849C6.71766 22.8849 8.89453 20.7906 9.68203 19.9281C9.82453 19.7743 9.89766 19.6881 9.91266 19.6787C9.92578 19.6693 9.90328 19.6637 10.0495 19.6599C11.0827 19.6393 12.1139 19.5999 13.1452 19.5437C14.5045 19.4687 15.8902 19.3393 17.2233 18.7824C18.3839 18.2968 19.3533 17.5037 19.9402 16.3149C20.5402 15.0962 20.8608 13.8043 20.9808 12.4674C21.1795 10.2418 21.1102 8.01244 20.4952 5.81494C20.1333 4.52682 19.4058 3.43744 18.2902 2.66869C16.9552 1.74994 15.4495 1.40494 13.9758 1.18557C13.1152 1.05807 12.2489 0.973691 11.3789 0.947441C11.1614 0.941816 10.9439 0.938066 10.7245 0.939941ZM11.3527 1.90744C12.1795 1.92994 13.0064 2.01057 13.8352 2.13432C15.2564 2.34619 16.597 2.66869 17.7464 3.45994C18.6783 4.10119 19.2595 4.96744 19.5708 6.07182C20.1445 8.12682 20.2177 10.2324 20.0245 12.3831C19.9139 13.6224 19.6195 14.7906 19.0777 15.8912C18.5995 16.8624 17.8533 17.4793 16.852 17.8974C15.6895 18.3831 14.4258 18.5124 13.0945 18.5856C12.0745 18.6418 11.0527 18.6793 10.0308 18.6999C9.77391 18.7056 9.52266 18.7731 9.34453 18.9043C9.16641 19.0356 9.08578 19.1574 8.97516 19.2774C8.41266 19.8924 7.29141 20.9743 6.68016 21.5668C6.67641 20.8506 6.67078 19.9843 6.68016 19.1856C6.68391 18.9399 6.62766 18.6887 6.48703 18.4899C6.34641 18.2912 6.15328 18.1712 5.96766 18.0849C5.42578 17.8337 4.71703 17.6424 4.40953 17.4493C3.33516 16.7743 2.72578 15.7618 2.36391 14.5018C1.88953 12.8537 1.79953 11.1568 1.94016 9.42994C2.01516 8.53369 2.14453 7.63557 2.30766 6.74494C2.64891 4.86807 3.72141 3.68682 5.42766 2.90307C6.50578 2.40807 7.65703 2.16432 8.87016 2.01619C9.69703 1.91494 10.5239 1.88307 11.3527 1.90744ZM11.5552 4.29994C11.1595 4.29994 10.7752 4.34494 10.402 4.42744C10.1452 4.48744 9.98203 4.74432 10.0402 5.00307C10.0983 5.26182 10.357 5.42307 10.6158 5.36494C10.9177 5.29557 11.2327 5.25994 11.5552 5.25994C13.8989 5.25994 15.7889 7.14994 15.7889 9.49182C15.7889 9.81619 15.7533 10.1312 15.6839 10.4349C15.6258 10.6918 15.787 10.9506 16.0458 11.0087C16.3045 11.0668 16.5614 10.9037 16.6195 10.6449C16.7039 10.2737 16.7489 9.88932 16.7489 9.49182C16.7489 6.63057 14.4183 4.29994 11.5552 4.29994ZM6.76641 5.26182C6.68766 5.25807 6.60703 5.26369 6.52266 5.28244C5.65078 5.47557 4.78453 6.10744 4.76016 7.23619C4.78453 7.39369 4.78266 7.56244 4.84078 7.70494C5.12578 8.40244 5.37328 9.12244 5.72953 9.78244C7.46391 12.9887 10.087 15.2181 13.4302 16.6337C13.8295 16.8024 14.242 16.8381 14.6452 16.6693C15.2002 16.4387 15.6708 16.0824 15.9839 15.5706C16.4133 14.8674 16.4189 14.3799 15.712 13.8606C15.2489 13.5193 14.7933 13.1687 14.3245 12.8349C13.6102 12.3287 12.8377 12.2406 12.3052 13.1293C12.277 13.1743 12.2358 13.2118 12.2002 13.2493C11.9264 13.5399 11.5908 13.6112 11.2345 13.4649C9.88266 12.9081 8.83828 12.0099 8.20828 10.6731C7.83703 9.88744 7.93828 9.49369 8.63203 8.97057C8.70141 8.91994 8.76703 8.86557 8.83078 8.80744C9.13453 8.52994 9.21516 8.19994 9.03516 7.82682C8.62828 6.97557 8.08641 6.21619 7.40016 5.56182C7.21453 5.38557 7.00266 5.27494 6.76641 5.26182ZM11.5477 5.73994C11.3358 5.73994 11.1258 5.75682 10.9195 5.79244C10.7452 5.81494 10.597 5.93119 10.5333 6.09432C10.4695 6.25932 10.5014 6.44494 10.6139 6.57994C10.7283 6.71307 10.9083 6.77494 11.0808 6.73744C11.2308 6.71307 11.3883 6.69994 11.5477 6.69994C13.1077 6.69994 14.3602 7.95244 14.3602 9.51244C14.3602 9.67182 14.347 9.82932 14.3227 9.97932C14.2852 10.1518 14.347 10.3318 14.4802 10.4462C14.6152 10.5587 14.8008 10.5906 14.9658 10.5268C15.1289 10.4631 15.2452 10.3149 15.2677 10.1406C15.3033 9.93432 15.3202 9.72432 15.3202 9.51244C15.3202 7.43494 13.6252 5.73994 11.5477 5.73994ZM11.4802 7.17994C11.3077 7.17807 11.1464 7.26807 11.0583 7.41807C10.972 7.56807 10.972 7.75182 11.0583 7.90182C11.1464 8.05182 11.3077 8.14182 11.4802 8.13994C12.2808 8.13994 12.9202 8.77932 12.9202 9.57994C12.9183 9.75244 13.0083 9.91369 13.1583 10.0018C13.3083 10.0881 13.492 10.0881 13.642 10.0018C13.792 9.91369 13.882 9.75244 13.8802 9.57994C13.8802 8.25994 12.8002 7.17994 11.4802 7.17994Z" fill="#199402"/>
</svg>
