<svg width="16" height="17" viewBox="0 0 16 17" fill="none" xmlns="http://www.w3.org/2000/svg">
<path d="M14.9975 16.5C6.46587 16.5121 -0.00911762 9.9595 9.63742e-06 1.50251C9.63742e-06 0.950225 0.447725 0.5 1.00001 0.5H3.63937C4.13494 0.5 4.55593 0.864129 4.6287 1.35433C4.80311 2.5292 5.14517 3.67297 5.64448 4.7507L5.74725 4.9725C5.89013 5.28091 5.79328 5.64734 5.51668 5.84487C4.6993 6.42859 4.38692 7.60355 5.0237 8.52036C5.82278 9.67084 6.83005 10.6779 7.98027 11.4766C8.89702 12.1132 10.0718 11.8009 10.6555 10.9836C10.8532 10.7069 11.2198 10.61 11.5284 10.7529L11.7492 10.8552C12.827 11.3545 13.9708 11.6966 15.1458 11.871C15.636 11.9437 16 12.3647 16 12.8603V15.5C16 16.0523 15.5512 16.5 14.9989 16.5L14.9975 16.5Z" fill="#199402"/>
</svg>
