<svg width="22" height="20" viewBox="0 0 22 20" fill="none" xmlns="http://www.w3.org/2000/svg">
<path d="M21.1456 0.644925C20.7856 0.339645 20.2202 0.295965 19.6355 0.530685H19.6346C19.0197 0.777405 2.22928 7.97932 1.54576 8.27356C1.42144 8.31676 0.335681 8.72188 0.447521 9.62428C0.547361 10.4379 1.42 10.7748 1.52656 10.8137L5.7952 12.2753C6.0784 13.218 7.1224 16.6961 7.35328 17.4392C7.49728 17.9024 7.732 18.511 8.14336 18.6363C8.50432 18.7755 8.86336 18.6483 9.09568 18.4659L11.7054 16.0452L15.9184 19.3308L16.0187 19.3908C16.3048 19.5176 16.5789 19.5809 16.8405 19.5809C17.0426 19.5809 17.2365 19.543 17.4218 19.4672C18.053 19.208 18.3054 18.6065 18.3318 18.5384L21.4787 2.1814C21.6707 1.3078 21.4038 0.863325 21.1456 0.644925ZM9.55984 12.86L8.11984 16.7L6.67984 11.9L17.7198 3.73996L9.55984 12.86Z" fill="#199402"/>
</svg>
