<svg width="22" height="23" viewBox="0 0 22 23" fill="none" xmlns="http://www.w3.org/2000/svg">
<path d="M10.7244 0.439941C10.07 0.443691 9.41379 0.483066 8.75191 0.563691C7.48629 0.719316 6.23191 0.978066 5.02816 1.53119C3.11379 2.41057 1.75629 3.90307 1.36253 6.07244C1.19566 6.98744 1.06066 7.91557 0.983785 8.84932C0.83566 10.6624 0.927535 12.4812 1.44129 14.2681C1.84629 15.6762 2.59254 16.9418 3.89941 17.7631C4.45254 18.1099 5.18191 18.2787 5.56254 18.4549C5.66941 18.5056 5.69566 18.5356 5.70129 18.5431C5.70691 18.5487 5.72191 18.5618 5.72004 18.6743C5.70691 19.8218 5.72004 22.0418 5.72004 22.0418L5.72191 22.5199H6.57879L6.71754 22.3849C6.71754 22.3849 8.89441 20.2906 9.68191 19.4281C9.82441 19.2743 9.89754 19.1881 9.91254 19.1787C9.92566 19.1693 9.90316 19.1637 10.0494 19.1599C11.0825 19.1393 12.1138 19.0999 13.145 19.0437C14.5044 18.9687 15.89 18.8393 17.2232 18.2824C18.3838 17.7968 19.3532 17.0037 19.94 15.8149C20.54 14.5962 20.8607 13.3043 20.9807 11.9674C21.1794 9.74182 21.11 7.51244 20.495 5.31494C20.1332 4.02682 19.4057 2.93744 18.29 2.16869C16.955 1.24994 15.4494 0.904941 13.9757 0.685566C13.115 0.558066 12.2488 0.473691 11.3788 0.447441C11.1613 0.441816 10.9438 0.438066 10.7244 0.439941ZM11.3525 1.40744C12.1794 1.42994 13.0063 1.51057 13.835 1.63432C15.2563 1.84619 16.5969 2.16869 17.7463 2.95994C18.6782 3.60119 19.2594 4.46744 19.5707 5.57182C20.1444 7.62682 20.2175 9.73244 20.0244 11.8831C19.9138 13.1224 19.6194 14.2906 19.0775 15.3912C18.5994 16.3624 17.8532 16.9793 16.8519 17.3974C15.6894 17.8831 14.4257 18.0124 13.0944 18.0856C12.0744 18.1418 11.0525 18.1793 10.0307 18.1999C9.77379 18.2056 9.52254 18.2731 9.34441 18.4043C9.16629 18.5356 9.08566 18.6574 8.97504 18.7774C8.41254 19.3924 7.29129 20.4743 6.68004 21.0668C6.67629 20.3506 6.67066 19.4843 6.68004 18.6856C6.68379 18.4399 6.62754 18.1887 6.48691 17.9899C6.34629 17.7912 6.15316 17.6712 5.96754 17.5849C5.42566 17.3337 4.71691 17.1424 4.40941 16.9493C3.33504 16.2743 2.72566 15.2618 2.36379 14.0018C1.88941 12.3537 1.79941 10.6568 1.94003 8.92994C2.01503 8.03369 2.14441 7.13557 2.30753 6.24494C2.64879 4.36807 3.72129 3.18682 5.42754 2.40307C6.50566 1.90807 7.65691 1.66432 8.87004 1.51619C9.69691 1.41494 10.5238 1.38307 11.3525 1.40744ZM11.555 3.79994C11.1594 3.79994 10.775 3.84494 10.4019 3.92744C10.145 3.98744 9.98191 4.24432 10.04 4.50307C10.0982 4.76182 10.3569 4.92307 10.6157 4.86494C10.9175 4.79557 11.2325 4.75994 11.555 4.75994C13.8988 4.75994 15.7888 6.64994 15.7888 8.99182C15.7888 9.31619 15.7532 9.63119 15.6838 9.93494C15.6257 10.1918 15.7869 10.4506 16.0457 10.5087C16.3044 10.5668 16.5613 10.4037 16.6194 10.1449C16.7038 9.77369 16.7488 9.38932 16.7488 8.99182C16.7488 6.13057 14.4182 3.79994 11.555 3.79994ZM6.76629 4.76182C6.68754 4.75807 6.60691 4.76369 6.52254 4.78244C5.65066 4.97557 4.78441 5.60744 4.76004 6.73619C4.78441 6.89369 4.78254 7.06244 4.84066 7.20494C5.12566 7.90244 5.37316 8.62244 5.72941 9.28244C7.46379 12.4887 10.0869 14.7181 13.43 16.1337C13.8294 16.3024 14.2419 16.3381 14.645 16.1693C15.2 15.9387 15.6707 15.5824 15.9838 15.0706C16.4132 14.3674 16.4188 13.8799 15.7119 13.3606C15.2488 13.0193 14.7932 12.6687 14.3244 12.3349C13.61 11.8287 12.8375 11.7406 12.305 12.6293C12.2769 12.6743 12.2357 12.7118 12.2 12.7493C11.9263 13.0399 11.5907 13.1112 11.2344 12.9649C9.88254 12.4081 8.83816 11.5099 8.20816 10.1731C7.83691 9.38744 7.93816 8.99369 8.63191 8.47057C8.70129 8.41994 8.76691 8.36557 8.83066 8.30744C9.13441 8.02994 9.21504 7.69994 9.03504 7.32682C8.62816 6.47557 8.08629 5.71619 7.40004 5.06182C7.21441 4.88557 7.00253 4.77494 6.76629 4.76182ZM11.5475 5.23994C11.3357 5.23994 11.1257 5.25682 10.9194 5.29244C10.745 5.31494 10.5969 5.43119 10.5332 5.59432C10.4694 5.75932 10.5013 5.94494 10.6138 6.07994C10.7282 6.21307 10.9082 6.27494 11.0807 6.23744C11.2307 6.21307 11.3882 6.19994 11.5475 6.19994C13.1075 6.19994 14.36 7.45244 14.36 9.01244C14.36 9.17182 14.3469 9.32932 14.3225 9.47932C14.285 9.65182 14.3469 9.83182 14.48 9.94619C14.615 10.0587 14.8007 10.0906 14.9657 10.0268C15.1288 9.96307 15.245 9.81494 15.2675 9.64057C15.3032 9.43432 15.32 9.22432 15.32 9.01244C15.32 6.93494 13.625 5.23994 11.5475 5.23994ZM11.48 6.67994C11.3075 6.67807 11.1463 6.76807 11.0582 6.91807C10.9719 7.06807 10.9719 7.25182 11.0582 7.40182C11.1463 7.55182 11.3075 7.64182 11.48 7.63994C12.2807 7.63994 12.92 8.27932 12.92 9.07994C12.9182 9.25244 13.0082 9.41369 13.1582 9.50182C13.3082 9.58807 13.4919 9.58807 13.6419 9.50182C13.7919 9.41369 13.8819 9.25244 13.88 9.07994C13.88 7.75994 12.8 6.67994 11.48 6.67994Z" fill="#199402"/>
</svg>
