<svg width="24" height="24" viewBox="0 0 24 24" fill="none" xmlns="http://www.w3.org/2000/svg">
<path fill-rule="evenodd" clip-rule="evenodd" d="M10.8866 0.0278658C4.59277 0.635251 -0.195737 6.04596 0.00615495 12.3222C0.0648307 14.1476 0.459883 15.728 1.26041 17.3404C2.42993 19.6959 4.29826 21.5636 6.65905 22.7373C10.4861 24.6399 15.0089 24.3783 18.5785 22.0479C19.9742 21.1366 21.2969 19.7858 22.1999 18.3494C22.5431 17.8034 23.0613 16.7421 23.2966 16.1032C23.5338 15.4593 23.8103 14.3418 23.9129 13.6128C24.0168 12.8743 24.0308 11.1659 23.9383 10.5153C23.6612 8.56641 23.0431 6.9072 22.0168 5.35762C21.5803 4.69861 21.1445 4.16693 20.5372 3.55283C18.665 1.65962 16.3361 0.485446 13.6732 0.0921148C13.099 0.00730989 11.4852 -0.0299066 10.8866 0.0278658ZM12.719 8.9542C13.0566 9.10096 13.063 9.13118 13.063 10.5837C13.063 12.0198 13.0824 12.1345 13.3257 12.1345C13.6161 12.1345 14.5211 10.8354 14.9409 9.81596C15.1598 9.28455 15.1912 9.23654 15.3574 9.17863C15.5377 9.11574 17.5174 9.11696 17.7447 9.18008C18.243 9.31844 18.0655 9.79451 16.9406 11.3366C16.1308 12.4469 16.0186 12.6381 16.066 12.8272C16.0821 12.8911 16.4168 13.2736 16.8098 13.677C17.7066 14.5977 18.0152 15.013 18.0152 15.2993C18.0152 15.3646 17.9535 15.4871 17.8782 15.5714L17.7411 15.7247H16.5991H15.4569L15.203 15.5841C15.0374 15.4924 14.7679 15.2508 14.4285 14.8895C14.1421 14.5848 13.842 14.2944 13.7615 14.244C13.5643 14.1207 13.3874 14.1263 13.3007 14.2587C13.2282 14.3691 13.1184 14.807 13.0634 15.2044C13.0408 15.3676 12.9926 15.4738 12.8983 15.5681C12.7652 15.7011 12.7645 15.7012 12.1395 15.7004C10.9397 15.6988 10.216 15.4423 9.27143 14.6836C8.71256 14.2348 7.96386 13.2524 7.24229 12.0211C6.91004 11.4542 6.05337 9.699 6.01479 9.50607C5.99648 9.4146 6.01404 9.32519 6.06577 9.24625L6.14463 9.12592L7.19478 9.1401C8.17255 9.15333 8.25404 9.16103 8.37736 9.25198C8.45016 9.30572 8.54559 9.42187 8.58943 9.5101C8.63328 9.59833 8.79621 9.93455 8.95149 10.2572C9.44812 11.289 10.1285 12.2079 10.3703 12.1736C10.5122 12.1534 10.5816 12.003 10.6495 11.5687C10.7206 11.1141 10.6688 9.92202 10.5696 9.73026C10.4958 9.58759 10.2503 9.41291 10.1232 9.41263C9.97245 9.41225 9.93311 9.29488 10.0387 9.16065C10.2555 8.88507 10.4335 8.85175 11.6078 8.86705C12.3437 8.87662 12.5839 8.89549 12.719 8.9542Z" fill="#199402"/>
</svg>
