<svg width="21" height="21" viewBox="0 0 21 21" fill="none" xmlns="http://www.w3.org/2000/svg">
<path d="M10.5 0.5C4.9775 0.5 0.5 4.9775 0.5 10.5C0.5 12.376 1.02695 14.1251 1.92578 15.6253L0.589518 20.5L5.56836 19.193C7.02446 20.0209 8.70541 20.5 10.5 20.5C16.0225 20.5 20.5 16.0225 20.5 10.5C20.5 4.9775 16.0225 0.5 10.5 0.5ZM7.07715 5.83529C7.23965 5.83529 7.40661 5.8343 7.55078 5.8418C7.72912 5.84596 7.92322 5.85902 8.10905 6.26986C8.32988 6.75819 8.81073 7.98325 8.8724 8.10742C8.93406 8.23159 8.97776 8.37786 8.89193 8.54037C8.81026 8.70703 8.76779 8.8079 8.64779 8.9554C8.52362 9.09874 8.38757 9.27676 8.27506 9.38509C8.1509 9.50926 8.02268 9.6454 8.16602 9.8929C8.30935 10.1404 8.80714 10.9518 9.54297 11.6068C10.4888 12.4518 11.2868 12.7114 11.5352 12.8356C11.7835 12.9598 11.9273 12.9404 12.0706 12.7738C12.2181 12.6113 12.6901 12.0537 12.8568 11.8053C13.0193 11.557 13.1852 11.6 13.4102 11.6816C13.6385 11.7633 14.8562 12.3631 15.1045 12.4873C15.3528 12.6115 15.5156 12.6729 15.5781 12.7738C15.6423 12.8779 15.6424 13.3738 15.4365 13.9521C15.2307 14.5296 14.2199 15.0881 13.7666 15.1273C13.3091 15.1698 12.8821 15.3329 10.793 14.5104C8.27297 13.5179 6.68374 10.9368 6.55957 10.7702C6.4354 10.6077 5.55046 9.42826 5.55046 8.21159C5.55046 6.99076 6.19055 6.39286 6.41471 6.14453C6.64305 5.8962 6.91048 5.83529 7.07715 5.83529Z" fill="#199402"/>
</svg>
